<svg xmlns="http://www.w3.org/2000/svg" width="361.815" height="368.139" viewBox="0 0 361.815 368.139">
  <g id="그룹_3480" data-name="그룹 3480" transform="translate(-1337.16 -270.326)">
    <path id="패스_23883" data-name="패스 23883" d="M1844.51,331.872c6.21-3.738,16.627-4.949,21.224.542,3.307,3.949,5.759,9.2,5.883,14.281.131,5.334.145,11.906,5.027,14.386,2.93,1.488,6.475.763,9.782.933a17.309,17.309,0,0,1,13.455,7.689c2.332,3.626,3.1,7.959,4.6,11.975s4.16,8.079,8.4,9.283c3.195.909,6.6.007,9.911-.311,7.261-.7,12.483,4.877,15.621,11.242,3.123,6.336.405,14.053-4.011,19.634a39.589,39.589,0,0,1-29.606,14.616,25.128,25.128,0,0,1-10.813-1.836c-8.778-3.894-12.753-13.891-13.911-23.165-.847-6.789-1.151-14.664-6.8-18.778-3.452-2.516-8.1-2.893-11.886-4.9-5.94-3.152-8.934-9.863-9.932-16.345s-.429-13.117-1.364-19.608-3.779-13.234-9.624-16.548" transform="translate(-243.017 -27.859)" fill="#8c715b" stroke="#000" stroke-linecap="round" stroke-linejoin="round" stroke-width="1.5"/>
    <g id="그룹_3475" data-name="그룹 3475" transform="translate(1369.303 388.939)">
      <g id="그룹_3474" data-name="그룹 3474" transform="translate(0)">
        <path id="패스_23884" data-name="패스 23884" d="M1398.61,533.025c11.262,10.888,20.969,10.775,20.969,10.775l2.814,15.892,17.812,1.137-.06-27.8c.851-7.12-3.112-19.762-3.516-20.256a37.244,37.244,0,0,0-23.578-13.392c-7.9-1.1-3.463,22.3-3.463,22.3" transform="translate(-1398.61 -499.34)" fill="#fff" stroke="#000" stroke-linecap="round" stroke-linejoin="round" stroke-width="1.5"/>
      </g>
    </g>
    <path id="패스_23885" data-name="패스 23885" d="M1725.613,543.783l78.4-1.592-1.81-89.156-25.822-6.491.357-61.689c-13.759,7.484-26.67,26.071-41.253,31.787l1.388,32.277s-6.88,2.473-13.292,4.651Z" transform="translate(-186.484 -55.029)" fill="#fff" stroke="#000" stroke-linecap="round" stroke-linejoin="round" stroke-width="1.5"/>
    <path id="패스_23886" data-name="패스 23886" d="M1742.322,372.438a46.156,46.156,0,0,1-12.549,4.078c-13.313,1.715-26.037-8.181-31.542-20.423-4.66-10.362-5.344-23.607-5.013-34.874.3-10.285,2.663-20.742,8.425-29.267,10.278-15.206,30.259-18.9,47.21-14.132,23.563,6.623,24.1,39.376,18.794,60.952" transform="translate(-171.763 -2.318)" fill="#fff" stroke="#000" stroke-linecap="round" stroke-linejoin="round" stroke-width="1.5"/>
    <path id="패스_23887" data-name="패스 23887" d="M1736.386,370.7a128.443,128.443,0,0,0-3.555,16.8,4.975,4.975,0,0,0,2.615,5.061,21,21,0,0,0,2.18,1.013" transform="translate(-190.933 -48.185)" fill="none" stroke="#000" stroke-linecap="round" stroke-linejoin="round" stroke-width="1.5"/>
    <path id="패스_23888" data-name="패스 23888" d="M1718.128,694.589c13.186-4.7,32.424-30.521,9.636-121.487-7.678-37.045-58.89-61.558-93.635-67.927l-2.308,2.254a31.074,31.074,0,0,1-45.119-1.8h0s-55.932,2.524-76.374,39.856l-17.711,44.05-34.189-55.123-37.442,11.073s24.652,87.153,35.113,103.448,28.176,25.987,53.854,13.131c12.471-6.244,11.26-10.523,11.26-10.523" transform="translate(-40.13 -113.224)" fill="#afe2ef" stroke="#000" stroke-linecap="round" stroke-linejoin="round" stroke-width="1.5"/>
    <path id="패스_23889" data-name="패스 23889" d="M1763.769,367.966q6.434.437,12.764,1.4" transform="translate(-205.92 -46.861)" fill="none" stroke="#000" stroke-linecap="round" stroke-linejoin="round" stroke-width="1.5"/>
    <path id="패스_23890" data-name="패스 23890" d="M1715.875,366.6a69.292,69.292,0,0,0-10.969.245" transform="translate(-177.45 -46.146)" fill="none" stroke="#000" stroke-linecap="round" stroke-linejoin="round" stroke-width="1.5"/>
    <path id="패스_23891" data-name="패스 23891" d="M1772.44,664.743l8.813,159.392H1599.984l10.828-167.621" transform="translate(-126.704 -186.42)" fill="#afe2ef" stroke="#000" stroke-linecap="round" stroke-linejoin="round" stroke-width="1.5"/>
    <rect id="사각형_788" data-name="사각형 788" width="4.937" height="11.357" transform="translate(1372.076 372.288) rotate(-13.56)" fill="#fff" stroke="#000" stroke-linecap="round" stroke-linejoin="round" stroke-width="1.5"/>
    <path id="패스_23892" data-name="패스 23892" d="M1414.107,484.977l-10.176,2.454,8.886,45.094,13.937-3.361Z" transform="translate(-31.881 -103.455)" fill="#28aabf" stroke="#000" stroke-linecap="round" stroke-linejoin="round" stroke-width="1.5"/>
    <g id="그룹_3477" data-name="그룹 3477" transform="translate(1357.625 388.77)">
      <g id="그룹_3476" data-name="그룹 3476" transform="translate(0)">
        <path id="패스_23893" data-name="패스 23893" d="M1378.836,504.159c5.39-3.441,17.88-7.4,21.016-3.588,3.461,4.2.912,7.347-1.343,8.744,6.653-.521,7.363,9.053,1.969,10.457,6.067,1.925,4.406,9.46-2.669,10.218,1.066-.114,2.641,1.5,3.044,2.365a3.766,3.766,0,0,1-.127,3.24c-1.559,3.262-7.731,4.884-11.067,4.36a4.764,4.764,0,0,1-3.6-2.8,3.6,3.6,0,0,1,1.618-4.284c-4.887.382-7.926-7.054-3.622-9.51-3.911-.754-7.323-6.466-3.172-9.711C1375.813,513.166,1373.971,506.5,1378.836,504.159Z" transform="translate(-1375.994 -499.015)" fill="#fff" stroke="#000" stroke-linecap="round" stroke-linejoin="round" stroke-width="1.5"/>
        <path id="패스_23894" data-name="패스 23894" d="M1403.428,518.629c-5.34.2-12.84,1.629-17.976,4.5" transform="translate(-1380.568 -508.501)" fill="#fff" stroke="#000" stroke-linecap="round" stroke-linejoin="round" stroke-width="1.5"/>
        <path id="패스_23895" data-name="패스 23895" d="M1408.023,539.187c-2.964-.361-14.363,2.819-16.427,3.586" transform="translate(-1383.54 -518.431)" fill="#fff" stroke="#000" stroke-linecap="round" stroke-linejoin="round" stroke-width="1.5"/>
        <path id="패스_23896" data-name="패스 23896" d="M1408.346,559.084a84.021,84.021,0,0,0-9.736,2.837" transform="translate(-1386.932 -528.068)" fill="#fff" stroke="#000" stroke-linecap="round" stroke-linejoin="round" stroke-width="1.5"/>
      </g>
    </g>
    <path id="패스_23897" data-name="패스 23897" d="M1445.933,529.815c2.876-15.8-8.33-34.745-19.995-36.946-7.9-1.49-12.41,7.416-14.129,13.812-1.386,5.157-2.583,12.876,2.173,15.012,7.589,3.407,10.643-11.46,12.84-15.853-3.046,7.738-2.825,16.945,3,24.5" transform="translate(-35.095 -107.192)" fill="#fff" stroke="#000" stroke-linecap="round" stroke-linejoin="round" stroke-width="1.5"/>
    <g id="그룹_3479" data-name="그룹 3479" transform="translate(1567.32 477.406)">
      <g id="그룹_3478" data-name="그룹 3478" transform="translate(0 0)">
        <path id="패스_23898" data-name="패스 23898" d="M1792.683,710.923s2.749,13.045,18,13.774a17.966,17.966,0,0,0,8.033-1.687l4.645,1.689,10.852-12.063-3.031-6.541a66.362,66.362,0,0,0-9.026-15.345l-9.349-11.893a9.328,9.328,0,0,0-4.085-3.33l-.017-.036-18.385-4.412c-2.586-.648-7.028-1.045-8.053,3.049s3.123,5.667,5.709,6.314l11.485,2.866.343.086-8.589-2.073c-2.586-.647-6.568-.925-7.593,3.169s4.165,6.018,6.751,6.665l7.087,1.6.343.086-4.8-1.029c-2.586-.648-9.917-2.347-10.688,2.328-.811,4.919,4.165,6.018,6.751,6.666l6.5,1.425-.686-.172-2.569-.541c-2.585-.648-7.928-2.47-9.1,2.7-.93,4.117,4.251,5.675,6.837,6.323Z" transform="translate(-1782.112 -670.675)" fill="#fff" stroke="#000" stroke-linecap="round" stroke-linejoin="round" stroke-width="1.5"/>
        <line id="선_163" data-name="선 163" x1="6.496" y1="1.425" transform="translate(6.958 30.137)" fill="#fff" stroke="#000" stroke-linecap="round" stroke-linejoin="round" stroke-width="1.5"/>
        <line id="선_164" data-name="선 164" x2="8.758" y2="1.989" transform="translate(6.938 20.183)" fill="#fff" stroke="#000" stroke-linecap="round" stroke-linejoin="round" stroke-width="1.5"/>
        <line id="선_165" data-name="선 165" x1="10.136" y1="2.445" transform="translate(7.561 10.277)" fill="#fff" stroke="#000" stroke-linecap="round" stroke-linejoin="round" stroke-width="1.5"/>
      </g>
    </g>
    <path id="패스_23899" data-name="패스 23899" d="M1899.307,743.773l-48.479-26-24.895,37.966,50.861,35.673c10.945,6.771,27.768,9.271,37.19,6" transform="translate(-235.986 -216.051)" fill="#afe2ef" stroke="#000" stroke-linecap="round" stroke-linejoin="round" stroke-width="1.5"/>
    <path id="패스_23900" data-name="패스 23900" d="M1735.816,424.348c2.32,5.927,10.742,5.432,13.985-1.608Z" transform="translate(-192.4 -73.353)" fill="#fff" stroke="#000" stroke-linecap="round" stroke-linejoin="round" stroke-width="1.5"/>
    <path id="패스_23901" data-name="패스 23901" d="M1720.133,386.37a2.666,2.666,0,1,1-2.516-2.808A2.666,2.666,0,0,1,1720.133,386.37Z" transform="translate(-182.238 -54.403)"/>
    <path id="패스_23902" data-name="패스 23902" d="M1770.158,389.114a2.666,2.666,0,1,1-2.516-2.807A2.666,2.666,0,0,1,1770.158,389.114Z" transform="translate(-206.433 -55.73)"/>
    <circle id="타원_140" data-name="타원 140" cx="26.753" cy="26.753" r="26.753" transform="matrix(0.153, -0.988, 0.988, 0.153, 1338.016, 369.465)" fill="#28aabf" stroke="#000" stroke-linecap="round" stroke-linejoin="round" stroke-width="1.5"/>
    <path id="패스_23903" data-name="패스 23903" d="M1363.64,416.424a22.97,22.97,0,1,1,31.579-7.617A22.97,22.97,0,0,1,1363.64,416.424Zm0,0a22.97,22.97,0,1,1,31.579-7.617A22.97,22.97,0,0,1,1363.64,416.424Z" transform="translate(-7.077 -49.708)" fill="#fff" stroke="#000" stroke-linecap="round" stroke-linejoin="round" stroke-width="1.5"/>
    <path id="패스_23904" data-name="패스 23904" d="M1758.994,328.132c.344-2-1.416-3.88-3.413-4.471a13.4,13.4,0,0,0-6.19.155,13.644,13.644,0,0,1-6.192.181c-3.37-.968-5.378-4.3-8.368-6.1-5.5-3.307-12.578-.731-19.04-.929a17.014,17.014,0,0,1-12.218-5.273c-2.983-3.386-5.253-7.589-3.158-11.54a21.45,21.45,0,0,0-5.2,10.741,13.943,13.943,0,0,1-1.611,5.016,6.276,6.276,0,0,1-4.544,2.7l-.055.005a4.646,4.646,0,0,1-5.219-4.217,30.518,30.518,0,0,1-.055-3.456c.745-13.2,4.287-21.332,13.126-29.016a45.562,45.562,0,0,1,28.957-10.832c18.525-.427,30.855,6.56,38.477,16.82,7.723,10.4,12.443,30.674,9.393,43.119-1.363,5.561-2.7,10.146-5.9,14.893a68.238,68.238,0,0,1-10.617,12.426l.164-25.621" transform="translate(-167.195 0)" fill="#8c715b" stroke="#000" stroke-linecap="round" stroke-linejoin="round" stroke-width="1.5"/>
    <path id="패스_23905" data-name="패스 23905" d="M1824.658,371.442c1.1-3.584,4.853-5.938,8.207-5.148s5.846,4.611,5.452,8.363a10.262,10.262,0,0,1-5.212,7.526,20.957,20.957,0,0,1-8.634,2.3" transform="translate(-235.279 -45.979)" fill="#fff" stroke="#000" stroke-linecap="round" stroke-linejoin="round" stroke-width="1.5"/>
  </g>
</svg>
