<svg xmlns="http://www.w3.org/2000/svg" width="999.005" height="80" viewBox="0 0 999.005 80">
  <g id="그룹_4113" data-name="그룹 4113" transform="translate(-195 -1324.002)">
    <g id="제외_1" data-name="제외 1" transform="translate(524 1324.002)" fill="#f6f6f6">
      <path d="M 298.4557800292969 79 L 298.2562866210938 79 L 2.606231451034546 79 L 44.99104690551758 40.74231719970703 L 45.81350326538086 39.99995422363281 L 44.99100112915039 39.25763702392578 L 2.600584506988525 1 L 298.4557800292969 1 L 298.4557800292969 1.095590949058533 L 298.4557800292969 1.536227226257324 L 298.781005859375 1.833590865135193 L 340.5230102539062 40 L 298.781005859375 78.16641235351562 L 298.4557800292969 78.46377563476562 L 298.4557800292969 78.90441131591797 L 298.4557800292969 79 Z" stroke="none"/>
      <path d="M 297.4810180664062 78 L 339.0410461425781 40 L 297.4810180664062 2 L 5.201167106628418 2 L 47.30600357055664 39.99990844726562 L 5.206551551818848 78 L 297.4810180664062 78 M 299.4557800292969 80 L 0.005911210551857948 80 L 44.32100296020508 40 L 2.119584451065748e-06 0 L 299.4557800292969 0 L 299.4557800292969 1.095590949058533 L 342.0049133300781 40 L 299.4557800292969 78.90441131591797 L 299.4557800292969 80 Z" stroke="none" fill="#a7e3db"/>
    </g>
    <g id="제외_3" data-name="제외 3" transform="translate(852 1324.002)" fill="#f6f6f6">
      <path d="M 298.4557800292969 79 L 298.2562866210938 79 L 2.606231451034546 79 L 44.99104690551758 40.74231719970703 L 45.81350326538086 39.99995422363281 L 44.99100112915039 39.25763702392578 L 2.600584506988525 1 L 298.4557800292969 1 L 298.4557800292969 1.095590949058533 L 298.4557800292969 1.536227226257324 L 298.781005859375 1.833590865135193 L 340.5230102539062 40 L 298.781005859375 78.16641235351562 L 298.4557800292969 78.46377563476562 L 298.4557800292969 78.90441131591797 L 298.4557800292969 79 Z" stroke="none"/>
      <path d="M 297.4810180664062 78 L 339.0410461425781 40 L 297.4810180664062 2 L 5.201167106628418 2 L 47.30600357055664 39.99990844726562 L 5.206551551818848 78 L 297.4810180664062 78 M 299.4557800292969 80 L 0.005911210551857948 80 L 44.32100296020508 40 L 2.119584451065748e-06 0 L 299.4557800292969 0 L 299.4557800292969 1.095590949058533 L 342.0049133300781 40 L 299.4557800292969 78.90441131591797 L 299.4557800292969 80 Z" stroke="none" fill="#a5bbe8"/>
    </g>
    <g id="제외_2" data-name="제외 2" transform="translate(195 1324.002)" fill="#f6f6f6">
      <path d="M 298.4557800292969 79 L 298.2562866210938 79 L 2.606231451034546 79 L 44.99104690551758 40.74231719970703 L 45.81350326538086 39.99995422363281 L 44.99100112915039 39.25763702392578 L 2.600584506988525 1 L 298.4557800292969 1 L 298.4557800292969 1.095590949058533 L 298.4557800292969 1.536227226257324 L 298.781005859375 1.833590865135193 L 340.5230102539062 40 L 298.781005859375 78.16641235351562 L 298.4557800292969 78.46377563476562 L 298.4557800292969 78.90441131591797 L 298.4557800292969 79 Z" stroke="none"/>
      <path d="M 297.4810180664062 78 L 339.0410461425781 40 L 297.4810180664062 2 L 5.201167106628418 2 L 47.30600357055664 39.99990844726562 L 5.206551551818848 78 L 297.4810180664062 78 M 299.4557800292969 80 L 0.005911210551857948 80 L 44.32100296020508 40 L 2.119584451065748e-06 0 L 299.4557800292969 0 L 299.4557800292969 1.095590949058533 L 342.0049133300781 40 L 299.4557800292969 78.90441131591797 L 299.4557800292969 80 Z" stroke="none" fill="#ffd76c"/>
    </g>
    <text id="행사참가_등록" data-name="행사참가 등록" transform="translate(334 1374)" fill="#222" font-size="22" font-family="NotoSansCJKkr-Bold, Noto Sans CJK KR" font-weight="700"><tspan x="0" y="0">행사참가 등록</tspan></text>
    <g id="그룹_4106" data-name="그룹 4106" transform="translate(-36.205)">
      <text id="좋아요_참여" data-name="좋아요! 참여" transform="translate(1026.874 1374)" fill="#222" font-size="22" font-family="NotoSansCJKkr-Bold, Noto Sans CJK KR" font-weight="700"><tspan x="0" y="0">좋아요! 참여</tspan></text>
      <g id="그룹_3874" data-name="그룹 3874" transform="translate(580.841 346.252)">
        <g id="그룹_3872" data-name="그룹 3872" transform="translate(407.22 998.829)">
          <g id="그룹_3867" data-name="그룹 3867" transform="translate(14.265 4.096)">
            <path id="패스_24156" data-name="패스 24156" d="M457.962,1017.44a13.324,13.324,0,0,1,3.053-6.106c2.341-2.341,5.292-.1,3.969,3.155s-1.425,4.681-.814,7.429" transform="translate(-457.35 -1009.753)" fill="#fff"/>
            <path id="패스_24157" data-name="패스 24157" d="M463.281,1021.641a.612.612,0,0,1-.6-.48c-.66-2.968-.494-4.5.844-7.792.595-1.464.17-2.577-.515-3.031a1.931,1.931,0,0,0-2.454.54,12.793,12.793,0,0,0-2.885,5.787.612.612,0,0,1-1.2-.228,13.813,13.813,0,0,1,3.222-6.425,3.122,3.122,0,0,1,4-.7c1.1.73,1.827,2.408.973,4.513-1.312,3.229-1.346,4.534-.784,7.066a.612.612,0,0,1-.465.73A.627.627,0,0,1,463.281,1021.641Z" transform="translate(-456.462 -1008.864)" fill="#3e3a39"/>
          </g>
          <g id="그룹_3871" data-name="그룹 3871" transform="translate(0)">
            <g id="그룹_3868" data-name="그룹 3868" transform="translate(1.329)">
              <path id="패스_24158" data-name="패스 24158" d="M439.658,1016.7l-12.032-12.031a2.545,2.545,0,0,1,0-3.6h0a2.545,2.545,0,0,1,3.6,0l14.146,14.146s6.282,6.587,0,12.869l-5.112,5.111s-5.824,4.149-10.709-.023c-4.85-4.144-2.85-7.633-2.85-7.633" transform="translate(-425.669 -999.715)" fill="#fff"/>
              <path id="패스_24159" data-name="패스 24159" d="M433.583,1034.748a8.005,8.005,0,0,1-5.332-1.994c-5.177-4.422-3.075-8.242-2.983-8.4a.612.612,0,0,1,1.062.609c-.067.122-1.653,3.13,2.716,6.863,4.306,3.677,9.378.387,9.917.017l5.073-5.073c2.419-2.419,3.165-5.155,2.218-8.132a11.225,11.225,0,0,0-2.229-3.883l-14.135-14.135a1.932,1.932,0,0,0-2.732,2.733l12.032,12.032a.612.612,0,0,1-.866.866l-12.032-12.032a3.156,3.156,0,1,1,4.464-4.464L444.9,1013.9c.077.08,6.628,7.107,0,13.735l-5.112,5.112a.614.614,0,0,1-.078.066A11.875,11.875,0,0,1,433.583,1034.748Z" transform="translate(-424.769 -998.829)" fill="#3e3a39"/>
            </g>
            <g id="그룹_3870" data-name="그룹 3870" transform="translate(0 12.464)">
              <g id="그룹_3869" data-name="그룹 3869">
                <path id="패스_24160" data-name="패스 24160" d="M426.923,1045.568l-3.166-3.166a2.544,2.544,0,0,1,0-3.6h0a2.545,2.545,0,0,1,3.6,0l3.166,3.167h0l-3.166-3.167a2.544,2.544,0,0,1,0-3.6h0a2.544,2.544,0,0,1,3.6,0l3.166,3.166-3.166-3.166a2.543,2.543,0,0,1,0-3.6h0a2.544,2.544,0,0,1,3.6,0l3.166,3.166" transform="translate(-422.4 -1030.252)" fill="#fff"/>
                <path id="패스_24161" data-name="패스 24161" d="M426.035,1045.294a.61.61,0,0,1-.433-.179l-3.166-3.166a28.957,28.957,0,0,0,3.6-8.062,3.152,3.152,0,0,1,2.71-.887,3.219,3.219,0,0,1-.036-.479,3.157,3.157,0,0,1,5.388-2.232l3.166,3.167a.612.612,0,0,1-.866.866l-3.166-3.166a1.932,1.932,0,0,0-2.751,2.714l.018.018,3.166,3.166a.612.612,0,0,1-.866.866l-3.166-3.166-.018-.018a1.932,1.932,0,0,0-2.733,2.732l.018.018,3.166,3.166a.612.612,0,0,1-.866.866l-3.167-3.166-.018-.018a1.932,1.932,0,0,0-2.714,2.75l3.166,3.166a.612.612,0,0,1-.433,1.045Z" transform="translate(-421.512 -1029.366)" fill="#3e3a39"/>
              </g>
            </g>
          </g>
        </g>
        <g id="그룹_3873" data-name="그룹 3873" transform="translate(397.364 1006.673)">
          <path id="패스_24162" data-name="패스 24162" d="M411.135,1020.564a3.468,3.468,0,0,0-4.906,0l-.722.722-.722-.722a3.469,3.469,0,0,0-4.906,4.906l.722.722,4.906,4.906,4.906-4.906.721-.722A3.468,3.468,0,0,0,411.135,1020.564Z" transform="translate(-398.252 -1018.936)" fill="#a5bbe8"/>
          <path id="패스_24163" data-name="패스 24163" d="M404.62,1030.823a.611.611,0,0,1-.433-.18l-5.628-5.628a4.081,4.081,0,1,1,5.772-5.771l.289.289.289-.289a4.081,4.081,0,1,1,5.772,5.771l-5.628,5.628A.611.611,0,0,1,404.62,1030.823Zm-3.175-11.55a2.857,2.857,0,0,0-2.02,4.877l5.195,5.2,5.194-5.2a2.857,2.857,0,1,0-4.04-4.04l-.722.721a.612.612,0,0,1-.866,0l-.721-.721A2.837,2.837,0,0,0,401.445,1019.272Z" transform="translate(-397.364 -1018.048)" fill="#a5bbe8"/>
        </g>
      </g>
    </g>
    <g id="그룹_3884" data-name="그룹 3884" transform="translate(-111.739 883.809)">
      <g id="그룹_3879" data-name="그룹 3879" transform="translate(395.351 461.27)">
        <g id="그룹_3877" data-name="그룹 3877">
          <g id="그룹_3875" data-name="그룹 3875">
            <path id="패스_24164" data-name="패스 24164" d="M396.851,483.894V480.35a4.715,4.715,0,0,1,4.715-4.715h11l7-3.419,2.958-7.888a2.4,2.4,0,0,1,4.5,1.687l-3.294,8.784a2.4,2.4,0,0,1-1.2,1.315l-8.824,4.554v16.757" transform="translate(-396.218 -462.136)" fill="#fff"/>
            <path id="패스_24165" data-name="패스 24165" d="M412.848,497.191a.632.632,0,0,1-.633-.633V479.8a.633.633,0,0,1,.343-.562l8.825-4.554a1.772,1.772,0,0,0,.893-.975l3.294-8.783a1.77,1.77,0,0,0-3.315-1.243l-2.958,7.888a.632.632,0,0,1-.315.346l-7,3.419a.633.633,0,0,1-.278.064h-11a4.087,4.087,0,0,0-4.082,4.083v3.544a.633.633,0,0,1-1.266,0v-3.544a5.354,5.354,0,0,1,5.348-5.348h10.858l6.643-3.244,2.869-7.652a3.036,3.036,0,0,1,5.685,2.132l-3.294,8.784a3.022,3.022,0,0,1-1.51,1.661l-8.469,4.371v16.371A.632.632,0,0,1,412.848,497.191Z" transform="translate(-395.351 -461.27)" fill="#3e3a39"/>
          </g>
          <g id="그룹_3876" data-name="그룹 3876" transform="translate(0 17.975)">
            <path id="패스_24166" data-name="패스 24166" d="M401.659,505.38v14.277a2.4,2.4,0,0,1-2.4,2.4h0a2.4,2.4,0,0,1-2.4-2.4V505.38" transform="translate(-396.218 -504.747)" fill="#fff"/>
            <path id="패스_24167" data-name="패스 24167" d="M398.388,521.826a3.04,3.04,0,0,1-3.037-3.037V504.513a.633.633,0,1,1,1.266,0v14.277a1.771,1.771,0,0,0,3.543,0V504.513a.633.633,0,1,1,1.266,0v14.277A3.04,3.04,0,0,1,398.388,521.826Z" transform="translate(-395.351 -503.88)" fill="#3e3a39"/>
          </g>
        </g>
        <g id="그룹_3878" data-name="그룹 3878" transform="translate(6.448 2.534)">
          <path id="패스_24168" data-name="패스 24168" d="M420.475,472.946a4.17,4.17,0,1,0-4.17,4.17A4.17,4.17,0,0,0,420.475,472.946Z" transform="translate(-411.502 -468.143)" fill="#fff"/>
          <path id="패스_24169" data-name="패스 24169" d="M415.438,476.882a4.8,4.8,0,1,1,4.8-4.8A4.808,4.808,0,0,1,415.438,476.882Zm0-8.34a3.537,3.537,0,1,0,3.537,3.538A3.541,3.541,0,0,0,415.438,468.542Z" transform="translate(-410.635 -467.276)" fill="#3e3a39"/>
        </g>
      </g>
      <g id="그룹_3880" data-name="그룹 3880" transform="translate(416.573 481.799)">
        <line id="선_458" data-name="선 458" x2="10.82" transform="translate(0.633 0.633)" fill="#fff"/>
        <path id="패스_24170" data-name="패스 24170" d="M457.11,511.2H446.29a.633.633,0,0,1,0-1.266h10.82a.633.633,0,1,1,0,1.266Z" transform="translate(-445.657 -509.935)" fill="#ffd76c"/>
      </g>
      <g id="그룹_3881" data-name="그룹 3881" transform="translate(416.573 485.857)">
        <line id="선_459" data-name="선 459" x2="14.652" transform="translate(0.633 0.633)" fill="#fff"/>
        <path id="패스_24171" data-name="패스 24171" d="M460.942,520.818H446.29a.633.633,0,0,1,0-1.266h14.652a.633.633,0,1,1,0,1.266Z" transform="translate(-445.657 -519.553)" fill="#ffd76c"/>
      </g>
      <g id="그룹_3882" data-name="그룹 3882" transform="translate(416.573 489.914)">
        <line id="선_460" data-name="선 460" x2="5.906" transform="translate(0.633 0.633)" fill="#fff"/>
        <path id="패스_24172" data-name="패스 24172" d="M452.2,530.437H446.29a.633.633,0,0,1,0-1.266H452.2a.633.633,0,1,1,0,1.266Z" transform="translate(-445.657 -529.171)" fill="#ffd76c"/>
      </g>
      <g id="그룹_3883" data-name="그룹 3883" transform="translate(416.573 493.972)">
        <line id="선_461" data-name="선 461" x2="9.914" transform="translate(0.633 0.633)" fill="#fff"/>
        <path id="패스_24173" data-name="패스 24173" d="M456.2,540.055H446.29a.633.633,0,1,1,0-1.266H456.2a.633.633,0,1,1,0,1.266Z" transform="translate(-445.657 -538.79)" fill="#ffd76c"/>
      </g>
    </g>
    <g id="그룹_4107" data-name="그룹 4107" transform="translate(-19.176)">
      <text id="작품제출" transform="translate(697.824 1374)" fill="#222" font-size="22" font-family="NotoSansCJKkr-Bold, Noto Sans CJK KR" font-weight="700"><tspan x="0" y="0">작품제출</tspan></text>
      <g id="그룹_3891" data-name="그룹 3891" transform="translate(561.241 346.254)">
        <g id="그룹_3885" data-name="그룹 3885" transform="translate(102.747 1012.449)">
          <path id="패스_24174" data-name="패스 24174" d="M137.575,1035.766s2.477,1.9,2.477,6.511v2.065l2.46,2.46-7.987,7.987-3.4-3.4a17.119,17.119,0,0,1-3.644-2.247l-3.192-2.382,7.885-13.043" transform="translate(-123.675 -1033.105)" fill="#fff"/>
          <path id="패스_24175" data-name="패스 24175" d="M133.636,1054.513a.61.61,0,0,1-.432-.179l-3.318-3.318a18.625,18.625,0,0,1-3.669-2.279l-3.184-2.375a.612.612,0,0,1-.158-.807l7.885-13.044a.612.612,0,0,1,1.047.634l-7.6,12.568,2.747,2.049a16.7,16.7,0,0,0,3.506,2.17.6.6,0,0,1,.205.135l2.969,2.968,7.122-7.121-2.027-2.027a.612.612,0,0,1-.179-.432v-2.066c0-4.265-2.214-6.008-2.237-6.025a.612.612,0,1,1,.744-.972c.111.085,2.717,2.135,2.717,7v1.812l2.281,2.28a.613.613,0,0,1,0,.866l-7.987,7.987A.61.61,0,0,1,133.636,1054.513Z" transform="translate(-122.787 -1032.216)" fill="#3e3a39"/>
        </g>
        <g id="그룹_3889" data-name="그룹 3889" transform="translate(88.935 998.825)">
          <g id="그룹_3888" data-name="그룹 3888">
            <g id="그룹_3886" data-name="그룹 3886" transform="translate(0 0)">
              <path id="패스_24176" data-name="패스 24176" d="M104.045,1000.326H90.435v28.343h23.152v-18.8Z" transform="translate(-89.823 -999.714)" fill="#fff"/>
              <path id="패스_24177" data-name="패스 24177" d="M112.7,1028.393H89.547a.612.612,0,0,1-.612-.612V999.438a.612.612,0,0,1,.612-.612h13.61a.611.611,0,0,1,.433.18l9.542,9.54a.614.614,0,0,1,.18.433v18.8A.612.612,0,0,1,112.7,1028.393Zm-22.54-1.224h21.928v-17.937l-9.183-9.182H90.159Z" transform="translate(-88.935 -998.826)" fill="#3e3a39"/>
            </g>
            <g id="그룹_3887" data-name="그룹 3887" transform="translate(13.61)">
              <path id="패스_24178" data-name="패스 24178" d="M123.792,1009.867h9.542l-9.542-9.541Z" transform="translate(-123.18 -999.714)" fill="#a7e3db"/>
              <path id="패스_24179" data-name="패스 24179" d="M132.446,1009.59H122.9a.612.612,0,0,1-.612-.612v-9.541a.612.612,0,0,1,1.045-.432l9.542,9.54a.612.612,0,0,1-.432,1.045Zm-8.93-1.224h7.452l-7.452-7.451Z" transform="translate(-122.292 -998.825)" fill="#3e3a39"/>
            </g>
          </g>
          <path id="패스_24180" data-name="패스 24180" d="M115.119,1036.159H102.7a.612.612,0,0,1,0-1.224h12.418a.612.612,0,0,1,0,1.224Z" transform="translate(-96.722 -1020.202)" fill="#3e3a39"/>
          <path id="패스_24181" data-name="패스 24181" d="M115.119,1046.994H102.7a.612.612,0,1,1,0-1.224h12.418a.612.612,0,1,1,0,1.224Z" transform="translate(-96.722 -1026.616)" fill="#3e3a39"/>
          <path id="패스_24182" data-name="패스 24182" d="M115.119,1057.826H102.7a.612.612,0,0,1,0-1.224h12.418a.612.612,0,0,1,0,1.224Z" transform="translate(-96.722 -1033.029)" fill="#3e3a39"/>
        </g>
        <g id="그룹_3890" data-name="그룹 3890" transform="translate(108.886 1010.129)">
          <path id="패스_24183" data-name="패스 24183" d="M143.7,1035.18l-3.794-3.794a1.966,1.966,0,0,1,0-2.78h0a1.966,1.966,0,0,1,2.78,0l3.794,3.794" transform="translate(-138.721 -1027.418)" fill="#fff"/>
          <path id="패스_24184" data-name="패스 24184" d="M142.815,1034.9a.611.611,0,0,1-.433-.179l-3.794-3.794a2.578,2.578,0,1,1,3.646-3.645l3.794,3.794a.612.612,0,1,1-.865.865l-3.794-3.794a1.386,1.386,0,0,0-1.914,0,1.355,1.355,0,0,0,0,1.914l3.794,3.794a.612.612,0,0,1-.433,1.045Z" transform="translate(-137.835 -1026.53)" fill="#3e3a39"/>
        </g>
      </g>
    </g>
  </g>
</svg>
