<svg xmlns="http://www.w3.org/2000/svg" width="335" height="65" viewBox="0 0 335 65">
  <g id="그룹_4112" data-name="그룹 4112" transform="translate(-20 -938)">
    <g id="제외_6" data-name="제외 6" transform="translate(20 938)" fill="#f6f6f6">
      <path d="M 98.81592559814453 64 L 1.554280519485474 64 L 15.68304634094238 32.91472625732422 L 15.87112331390381 32.50094223022461 L 15.68304634094238 32.087158203125 L 1.552977800369263 1.000003814697266 L 98.81592559814453 1.000003814697266 L 98.81592559814453 1.103049993515015 L 98.90355682373047 1.298357605934143 L 112.903938293457 32.4999885559082 L 98.90355682373047 63.70163345336914 L 98.81592559814453 63.89694213867188 L 98.81592559814453 64 Z" stroke="none"/>
      <path d="M 98.12233734130859 63.00000381469727 L 111.8078842163086 32.4999885559082 L 98.12233734130859 2.000003814697266 L 3.105974435806274 2.000003814697266 L 16.96958351135254 32.50091934204102 L 3.107242822647095 63.00000381469727 L 98.12233734130859 63.00000381469727 M 99.81593322753906 65 L 0.001316666719503701 65 L 14.77268314361572 32.50093841552734 L 0 3.814697265625e-06 L 99.81593322753906 3.814697265625e-06 L 99.81593322753906 0.888987123966217 L 114 32.4999885559082 L 99.81593322753906 64.11102294921875 L 99.81593322753906 65 Z" stroke="none" fill="#ffd76c"/>
    </g>
    <g id="제외_5" data-name="제외 5" transform="translate(131 938)" fill="#f6f6f6">
      <path d="M 98.81716918945312 64 L 1.554921865463257 64 L 15.68383121490479 32.91376876831055 L 15.87190723419189 32.49996948242188 L 15.68379974365234 32.08618545532227 L 1.553028464317322 1 L 98.81716918945312 1 L 98.81716918945312 1.104215383529663 L 98.90480041503906 1.299523115158081 L 112.9039535522461 32.5 L 98.90480041503906 63.70047760009766 L 98.81716918945312 63.89578628540039 L 98.81716918945312 64 Z" stroke="none"/>
      <path d="M 98.123046875 63 L 111.8079147338867 32.5 L 98.123046875 2 L 3.106067419052124 2 L 16.97036743164062 32.49995040893555 L 3.107875108718872 63 L 98.123046875 63 M 99.81716918945312 65 L 0.001966666663065553 65 L 14.77344989776611 32.5 L 0 0 L 99.81716918945312 0 L 99.81716918945312 0.8901666402816772 L 114 32.5 L 99.81716918945312 64.10983276367188 L 99.81716918945312 65 Z" stroke="none" fill="#a7e3db"/>
    </g>
    <g id="제외_4" data-name="제외 4" transform="translate(241 938)" fill="#f6f6f6">
      <path d="M 98.81716918945312 64 L 1.554921865463257 64 L 15.68383121490479 32.91376876831055 L 15.87190723419189 32.49996948242188 L 15.68379974365234 32.08618545532227 L 1.553028464317322 1 L 98.81716918945312 1 L 98.81716918945312 1.104215383529663 L 98.90480041503906 1.299523115158081 L 112.9039535522461 32.5 L 98.90480041503906 63.70047760009766 L 98.81716918945312 63.89578628540039 L 98.81716918945312 64 Z" stroke="none"/>
      <path d="M 98.123046875 63 L 111.8079147338867 32.5 L 98.123046875 2 L 3.106067419052124 2 L 16.97036743164062 32.49995040893555 L 3.107875108718872 63 L 98.123046875 63 M 99.81716918945312 65 L 0.001966666663065553 65 L 14.77344989776611 32.5 L 0 0 L 99.81716918945312 0 L 99.81716918945312 0.8901666402816772 L 114 32.5 L 99.81716918945312 64.10983276367188 L 99.81716918945312 65 Z" stroke="none" fill="#a5bbe8"/>
    </g>
    <text id="행사참가_등록" data-name="행사참가
등록" transform="translate(78 966)" fill="#222" font-size="15" font-family="NotoSansCJKkr-Bold, Noto Sans CJK KR" font-weight="700"><tspan x="-27.6" y="0">행사참가</tspan><tspan x="-13.8" y="22">등록</tspan></text>
    <text id="작품_제출" data-name="작품
제출" transform="translate(188 966)" fill="#222" font-size="15" font-family="NotoSansCJKkr-Bold, Noto Sans CJK KR" font-weight="700"><tspan x="-13.8" y="0">작품</tspan><tspan x="-13.8" y="22">제출</tspan></text>
    <text id="좋아요_참여" data-name="좋아요!
참여" transform="translate(297 966)" fill="#222" font-size="15" font-family="NotoSansCJKkr-Bold, Noto Sans CJK KR" font-weight="700"><tspan x="-23.475" y="0">좋아요!</tspan><tspan x="-13.8" y="22">참여</tspan></text>
  </g>
</svg>
