<svg id="그룹_3390" data-name="그룹 3390" xmlns="http://www.w3.org/2000/svg" width="66.875" height="67.739" viewBox="0 0 66.875 67.739">
  <g id="그룹_3389" data-name="그룹 3389" transform="translate(0)">
    <g id="그룹_3388" data-name="그룹 3388">
      <g id="그룹_3387" data-name="그룹 3387">
        <g id="그룹_3385" data-name="그룹 3385">
          <g id="그룹_3382" data-name="그룹 3382">
            <g id="그룹_3377" data-name="그룹 3377" transform="translate(0 36.248)">
              <path id="패스_23808" data-name="패스 23808" d="M709.4,1016.818H703.64a21.616,21.616,0,0,0-21.615,21.616v5h48.992v-5A21.615,21.615,0,0,0,709.4,1016.818Z" transform="translate(-680.44 -1015.233)" fill="#178cd4"/>
              <path id="패스_23809" data-name="패스 23809" d="M730.352,1044.354H681.36a1.586,1.586,0,0,1-1.585-1.585v-5a23.227,23.227,0,0,1,23.2-23.2h5.763a23.226,23.226,0,0,1,23.2,23.2v5A1.586,1.586,0,0,1,730.352,1044.354Zm-47.407-3.17h45.822v-3.415a20.053,20.053,0,0,0-20.029-20.031h-5.763a20.053,20.053,0,0,0-20.03,20.031Z" transform="translate(-679.775 -1014.568)" fill="#595757"/>
            </g>
            <g id="그룹_3381" data-name="그룹 3381" transform="translate(3.884)">
              <g id="그룹_3380" data-name="그룹 3380">
                <g id="그룹_3378" data-name="그룹 3378">
                  <path id="패스_23810" data-name="패스 23810" d="M728.762,985.972a20.612,20.612,0,1,0-20.61,20.613A20.612,20.612,0,0,0,728.762,985.972Z" transform="translate(-685.954 -963.774)" fill="#fff"/>
                  <path id="패스_23811" data-name="패스 23811" d="M707.487,1007.5a22.2,22.2,0,1,1,22.2-22.2A22.222,22.222,0,0,1,707.487,1007.5Zm0-41.225a19.028,19.028,0,1,0,19.026,19.028A19.049,19.049,0,0,0,707.487,966.279Z" transform="translate(-685.289 -963.109)" fill="#595757"/>
                </g>
                <g id="그룹_3379" data-name="그룹 3379" transform="translate(11.699 20.631)">
                  <path id="패스_23812" data-name="패스 23812" d="M706.505,994.7a2.3,2.3,0,1,0-2.3,2.3A2.3,2.3,0,0,0,706.505,994.7Z" transform="translate(-701.897 -992.397)" fill="#595757"/>
                  <path id="패스_23813" data-name="패스 23813" d="M729.769,994.7a2.3,2.3,0,1,0-2.3,2.3A2.3,2.3,0,0,0,729.769,994.7Z" transform="translate(-708.773 -992.397)" fill="#595757"/>
                </g>
                <path id="패스_23814" data-name="패스 23814" d="M717.791,999.96a1.706,1.706,0,1,0-1.706,1.7A1.707,1.707,0,0,0,717.791,999.96Z" transform="translate(-693.888 -973.497)" fill="#efefef"/>
              </g>
              <path id="패스_23815" data-name="패스 23815" d="M709.132,1005.922a5.4,5.4,0,0,0,10.8,0Z" transform="translate(-692.337 -975.764)" fill="#178cd4"/>
            </g>
          </g>
          <g id="그룹_3384" data-name="그룹 3384" transform="translate(39.791 40.655)">
            <g id="그룹_3383" data-name="그룹 3383">
              <circle id="타원_123" data-name="타원 123" cx="11.957" cy="11.957" r="11.957" transform="translate(1.585 1.585)" fill="#fff"/>
              <path id="패스_23816" data-name="패스 23816" d="M749.8,1047.908a13.542,13.542,0,1,1,13.542-13.542A13.557,13.557,0,0,1,749.8,1047.908Zm0-23.914a10.372,10.372,0,1,0,10.372,10.372A10.384,10.384,0,0,0,749.8,1023.994Z" transform="translate(-736.263 -1020.824)" fill="#595757"/>
            </g>
            <path id="패스_23817" data-name="패스 23817" d="M751.22,1044.175a2.126,2.126,0,0,1-1.509-.625l-3.843-3.843a2.136,2.136,0,0,1,3.019-3.021l2.333,2.334,4.469-4.468a2.135,2.135,0,0,1,3.021,3.018l-5.978,5.979A2.128,2.128,0,0,1,751.22,1044.175Z" transform="translate(-738.917 -1024.697)" fill="#178cd4"/>
          </g>
        </g>
      </g>
      <path id="패스_23820" data-name="패스 23820" d="M693.263,1051.633a1.585,1.585,0,0,1-1.585-1.585v-10.566a1.585,1.585,0,0,1,3.17,0v10.566A1.585,1.585,0,0,1,693.263,1051.633Z" transform="translate(-683.293 -985.215)" fill="#595757"/>
    </g>
  </g>
  <path id="패스_23821" data-name="패스 23821" d="M689.309,985.206a1.585,1.585,0,0,1-.066-3.168,15.043,15.043,0,0,0,9.251-4.439,1.584,1.584,0,1,1,2.3,2.183,18.007,18.007,0,0,1-11.418,5.423Z" transform="translate(-682.125 -967.246)" fill="#595757"/>
  <path id="패스_23822" data-name="패스 23822" d="M706.809,985.206a1.585,1.585,0,0,1-.066-3.168,15.042,15.042,0,0,0,9.251-4.439,1.584,1.584,0,1,1,2.3,2.183,18.007,18.007,0,0,1-11.418,5.423Z" transform="translate(-687.298 -967.246)" fill="#595757"/>
  <path id="패스_23823" data-name="패스 23823" d="M724.309,985.206a1.585,1.585,0,0,1-.066-3.168,15.037,15.037,0,0,0,9.25-4.439,1.585,1.585,0,0,1,2.3,2.183,18.008,18.008,0,0,1-11.418,5.423Z" transform="translate(-692.47 -967.246)" fill="#595757"/>
</svg>
