<svg xmlns="http://www.w3.org/2000/svg" xmlns:xlink="http://www.w3.org/1999/xlink" width="41.51" height="41.755" viewBox="0 0 41.51 41.755"><defs><style>.a{fill:#f6f6f6;}.b{fill:#df130d;}.c{fill:#00285e;}.d{filter:url(#a);}</style><filter id="a" x="0" y="0" width="41.51" height="41.755" filterUnits="userSpaceOnUse"><feOffset dy="1" input="SourceAlpha"/><feGaussianBlur stdDeviation="1" result="b"/><feFlood flood-opacity="0.161"/><feComposite operator="in" in2="b"/><feComposite in="SourceGraphic"/></filter></defs><g transform="translate(-175.992 -291.706)"><g transform="translate(178.503 293.5)"><path class="a" d="M2587.5,1722.291a18,18,0,1,1,13.145,21.791,17.993,17.993,0,0,1-13.145-21.791" transform="translate(-2586.965 -1708.615)"/><g class="d" transform="matrix(1, 0, 0, 1, -2.51, -1.79)"><path class="b" d="M2626.533,1721.844H2612.59v2.755h14.828a17.941,17.941,0,0,0-.885-2.755m-3.559-5.514H2612.59v2.758h12.521a18.07,18.07,0,0,0-2.137-2.758m-26.087,24.807h26a17.864,17.864,0,0,0,2.168-2.755h-30.333a18.025,18.025,0,0,0,2.165,2.755m17.323-29.919c-.54-.134-1.081-.24-1.621-.323v2.679h7.077a17.966,17.966,0,0,0-5.456-2.357m13.629,16.136h-15.25v2.758h15.24a17.943,17.943,0,0,0,.01-2.758m-34.561,8.272H2626.5a18.149,18.149,0,0,0,.861-2.615c.012-.048.022-.095.034-.143h-35.013a18.081,18.081,0,0,0,.9,2.758m12.284,10.53a18.105,18.105,0,0,0,3.189.494h2.291a18,18,0,0,0,8.472-2.758h-19.264a17.985,17.985,0,0,0,5.312,2.264" transform="translate(-2589.38 -1708.9)"/></g><path class="c" d="M2606.132,1727.007l-.385-.281-.386.281.147-.452-.385-.281h.476l.148-.453.146.453h.477l-.384.281Zm-1.894-14.367.147.455-.385-.281-.386.281.147-.455-.386-.278h.476l.148-.455.147.455h.477Zm0,4.1.147.453-.385-.281-.386.281.147-.453-.386-.281h.476l.148-.452.147.452h.477Zm-.035,4.021.147.453-.386-.281-.385.281.147-.453-.386-.281h.477l.147-.452.147.452h.477Zm.112,4.427-.386-.281-.385.281.146-.452-.385-.281h.477l.147-.452.147.452h.477l-.386.281Zm-1.9-10.564.148.452-.385-.278-.387.278.148-.452-.385-.281h.476l.148-.452.146.452h.475Zm0,3.977.148.452-.385-.281-.387.281.148-.452-.385-.281h.476l.148-.452.146.452h.475Zm0,4.065.148.455-.385-.28-.387.28.148-.455-.385-.278h.476l.148-.455.146.455h.475Zm.148,4.336-.385-.281-.387.281.148-.452-.385-.281h.476l.148-.453.146.453h.475l-.385.281Zm-1.895-14.367.148.455-.386-.281-.386.281.148-.455-.385-.278h.476l.147-.455.147.455h.476Zm0,4.1.148.453-.386-.281-.386.281.148-.453-.385-.281h.476l.147-.452.147.452h.476Zm-.034,4.021.147.453-.386-.281-.385.281.147-.453-.386-.281h.476l.148-.452.147.452h.477Zm.11,4.427-.385-.281-.385.281.147-.452-.385-.281h.476l.148-.452.147.452h.475l-.385.281Zm-1.893-14.538.146.452-.385-.281-.386.281.147-.452-.384-.281h.477l.147-.452.147.452h.477Zm0,3.974.146.452-.385-.278-.386.278.147-.452-.384-.281h.477l.147-.452.147.452h.477Zm0,3.977.146.452-.385-.281-.386.281.147-.452-.384-.281h.477l.147-.452.147.452h.477Zm0,4.065.146.455-.385-.28-.386.28.147-.455-.384-.278h.477l.147-.455.147.455h.477Zm.146,4.336-.385-.281-.386.281.147-.452-.384-.281h.477l.147-.453.147.453h.477l-.385.281Zm-1.893-14.51.148.455-.388-.281-.385.281.148-.455-.386-.278h.476l.146-.452.148.452h.476Zm0,4.1.148.452-.388-.278-.385.278.148-.452-.386-.281h.476l.146-.452.148.452h.476Zm-.037,4.021.149.453-.385-.281-.387.281.148-.453-.385-.28h.476l.148-.452.146.452h.477Zm.113,4.43-.386-.281-.385.281.147-.455-.386-.278h.475l.148-.452.147.452h.478l-.385.278Zm-1.894-10.424.148.452-.385-.278-.387.278.148-.452-.385-.281h.475l.149-.452.145.452h.476Zm0,3.977.148.452-.385-.281-.387.281.148-.452-.385-.281h.475l.149-.452.145.452h.476Zm0,4.065.148.455-.385-.28-.387.28.148-.455-.385-.278h.475l.149-.455.145.455h.476Zm.148,4.336-.385-.281-.387.281.148-.452-.385-.281h.475l.149-.453.145.453h.476l-.385.281Zm-1.895-10.444.147.452-.385-.281-.386.281.149-.452-.386-.281h.477l.147-.452.146.452h.478Zm-.035,4.021.147.452-.385-.281-.386.281.147-.452-.385-.281h.475l.148-.453.146.453h.477Zm.111,4.427-.385-.281-.385.281.147-.452-.386-.281h.477l.147-.452.148.452h.476l-.386.281Zm8.414-14.637.148-.452.146.452h.475l-.385.281.148.452-.385-.281-.387.281.148-.452-.385-.281Zm3.564,12.02.148-.455.146.455h.477l-.384.278.147.455-.385-.28-.386.28.147-.455-.385-.278Zm0-4.068.148-.452.146.452h.477l-.384.281.147.452-.385-.281-.386.281.147-.452-.385-.281Zm0-3.977.148-.452.146.452h.477l-.384.281.147.452-.385-.278-.386.278.147-.452-.385-.281Zm0-3.975.148-.452.146.452h.477l-.384.281.147.452-.385-.281-.386.281.147-.452-.385-.281Zm-13.87,8.233.147.452-.386-.281-.385.281.147-.452-.386-.281h.476l.148-.452.147.452h.477Zm0,4.065.147.455-.386-.28-.385.28.147-.455-.386-.278h.476l.148-.455.147.455h.477Zm.147,4.336-.386-.281-.385.281.147-.452-.386-.281h.476l.148-.453.147.453h.477l-.385.281Zm-1.931-6.493.148.452-.386-.28-.385.28.147-.452-.386-.281h.477l.147-.452.148.452h.476Zm.112,4.427-.385-.281-.387.281.148-.452-.385-.281h.476l.148-.452.146.452h.478l-.387.281Zm-1.746,2.067-.385-.281-.386.281.147-.452-.385-.281h.477l.147-.453.148.453h.474l-.385.281Zm19.173-18.035c-.175-.027-1.475-.169-1.65-.191l-3.2.118a17.87,17.87,0,0,0-9,3.811l.066.2-.167-.122a17.852,17.852,0,0,0-1.675,1.557h.263l-.385.281.147.452-.386-.278-.154.111q-.539.621-1.022,1.3h.053l-.112.081q-.117.166-.231.334l.1.318-.212-.153a17.807,17.807,0,0,0-2.414,5.525c-.006.026-.012.053-.019.079h.3l.147-.455.148.455h.474l-.385.278.147.455-.385-.28-.386.28.147-.455-.23-.166a17.8,17.8,0,0,0-.423,5.526h20.45Z" transform="translate(-2586.975 -1708.767)"/></g></g></svg>