<svg xmlns="http://www.w3.org/2000/svg" xmlns:xlink="http://www.w3.org/1999/xlink" width="42" height="41.999" viewBox="0 0 42 41.999"><defs><style>.a{fill:#f6f6f6;}.b{fill:#df130d;}.c{fill:#00285e;}.d{fill:#2e2a29;}.e{filter:url(#a);}</style><filter id="a" x="0" y="0" width="42" height="41.999" filterUnits="userSpaceOnUse"><feOffset dy="1" input="SourceAlpha"/><feGaussianBlur stdDeviation="1" result="b"/><feFlood flood-opacity="0.161"/><feComposite operator="in" in2="b"/><feComposite in="SourceGraphic"/></filter></defs><g transform="translate(-276 -33)"><g transform="translate(279 35)"><g class="e" transform="matrix(1, 0, 0, 1, -3, -2)"><path class="a" d="M1235.351,705.291a18,18,0,1,1,13.144,21.792,17.993,17.993,0,0,1-13.144-21.792" transform="translate(-1231.82 -689.61)"/></g><path class="b" d="M1379.8,818a9.076,9.076,0,1,1-9.864-8.215A9.083,9.083,0,0,1,1379.8,818" transform="translate(-1352.344 -801.267)"/><path class="c" d="M1362.986,845.969a4.533,4.533,0,1,0,7.753,4.7,4.531,4.531,0,0,1,7.75,4.7,9.065,9.065,0,1,1-15.5-9.4" transform="translate(-1352.365 -832.905)"/></g><path class="d" d="M1280.766,781.438l1.8,2.724.9-.617-1.8-2.724Zm-.286-.431.9-.62-1.8-2.726-.9.617Zm-3.185-1.773,3.888,5.883.9-.617-3.888-5.883Zm2.769-1.907,3.888,5.883.9-.62-3.886-5.886Zm23.909-7.578-1.8-2.729-.9.62,1.8,2.727Zm-2.086-3.159-1.8-2.728-.9.62,1.8,2.726Zm3.962,1.87.9-.62-1.8-2.726-.9.62Zm-1.189-3.779-1.8-2.726-.9.62,1.8,2.726Zm.7,4.115-3.884-5.886-.9.618,3.888,5.883Zm-3.4,15.7.9.617,1.8-2.726-.9-.619Zm2.086-3.159.9.617,1.8-2.724-.9-.618Zm-1.671-.521-1.8,2.724.9.622,1.8-2.726Zm2.985-2.539-.9-.62-1.8,2.726.9.62Zm-4.37,1.584-1.8,2.726.9.62,1.8-2.726Zm1.185.189,1.8-2.727-.9-.622-1.8,2.726Zm-22.111-10.3.9.618,3.886-5.885-.9-.618Zm-.488-.336,3.89-5.885-.9-.618-3.888,5.886Zm2.5-6.839-.9-.62-3.89,5.885.9.62Z" transform="translate(-994.645 -720.912)"/></g></svg>