<svg id="그룹_2222" data-name="그룹 2222" xmlns="http://www.w3.org/2000/svg" width="34.902" height="34.902" viewBox="0 0 34.902 34.902">
  <path id="패스_22173" data-name="패스 22173" d="M695.132,731.7a2.489,2.489,0,0,1-.617-.08,20.891,20.891,0,0,1-4.808,5.74,17.243,17.243,0,0,0,10.091-4.622,17.347,17.347,0,0,0-2.66-2.06A2.478,2.478,0,0,1,695.132,731.7Z" transform="translate(-671.005 -703.698)" fill="none"/>
  <path id="패스_22174" data-name="패스 22174" d="M678.724,710.636a2.411,2.411,0,0,1,.242.013,22.235,22.235,0,0,0,.857-4.228,2.486,2.486,0,0,1-1.7-1.8h-14.98a22.275,22.275,0,0,0,1.485,7.509,18.562,18.562,0,0,1,12.165-.577A2.479,2.479,0,0,1,678.724,710.636Z" transform="translate(-654.085 -686.893)" fill="none"/>
  <path id="패스_22175" data-name="패스 22175" d="M679.823,687.674a22.076,22.076,0,0,0-1.372-5.7,18.538,18.538,0,0,1-11.891.653,2.472,2.472,0,0,1-2.522,1.074,22.484,22.484,0,0,0-.89,5.783h14.976A2.487,2.487,0,0,1,679.823,687.674Z" transform="translate(-654.085 -672.314)" fill="none"/>
  <path id="패스_22176" data-name="패스 22176" d="M679.357,724.952a2.483,2.483,0,0,1,.054-.515,17.385,17.385,0,0,0-11.219.584,19.847,19.847,0,0,0,6.465,8,19.619,19.619,0,0,0,5.552-6.2A2.476,2.476,0,0,1,679.357,724.952Z" transform="translate(-657.17 -699.43)" fill="none"/>
  <path id="패스_22177" data-name="패스 22177" d="M671.451,666.626a2.481,2.481,0,0,1-.018.287,17.381,17.381,0,0,0,11.054-.63,19.845,19.845,0,0,0-6.466-8A19.643,19.643,0,0,0,670.4,664.6,2.478,2.478,0,0,1,671.451,666.626Z" transform="translate(-658.605 -656.974)" fill="none"/>
  <path id="패스_22178" data-name="패스 22178" d="M647.625,675.283a2.494,2.494,0,0,1,.065-.559,18.588,18.588,0,0,1-3.184-2.424,17.236,17.236,0,0,0-4.631,11.208h7.749a23.626,23.626,0,0,1,.98-6.252A2.478,2.478,0,0,1,647.625,675.283Z" transform="translate(-638.714 -666.15)" fill="none"/>
  <path id="패스_22179" data-name="패스 22179" d="M658.9,664.017a2.486,2.486,0,0,1,.368.031,20.928,20.928,0,0,1,4.929-5.963,17.246,17.246,0,0,0-10.09,4.622,17.392,17.392,0,0,0,2.887,2.2A2.479,2.479,0,0,1,658.9,664.017Z" transform="translate(-648 -656.849)" fill="none"/>
  <path id="패스_22180" data-name="패스 22180" d="M647.624,704.623h-7.749a17.236,17.236,0,0,0,4.631,11.208,18.428,18.428,0,0,1,4.7-3.237A23.416,23.416,0,0,1,647.624,704.623Z" transform="translate(-638.714 -687.08)" fill="none"/>
  <path id="패스_22181" data-name="패스 22181" d="M695.465,665.694a17.274,17.274,0,0,0,4.333-2.989,17.242,17.242,0,0,0-10.091-4.622A21.128,21.128,0,0,1,695.465,665.694Z" transform="translate(-671.006 -656.849)" fill="none"/>
  <path id="패스_22182" data-name="패스 22182" d="M710.631,672.3a18.448,18.448,0,0,1-4.7,3.238,23.224,23.224,0,0,1,1.465,6.092,2.483,2.483,0,0,1,1.991,1.879h5.874A17.238,17.238,0,0,0,710.631,672.3Z" transform="translate(-681.522 -666.15)" fill="none"/>
  <path id="패스_22183" data-name="패스 22183" d="M658.442,728.25a17.276,17.276,0,0,0-4.333,2.989,17.244,17.244,0,0,0,10.091,4.622A21.127,21.127,0,0,1,658.442,728.25Z" transform="translate(-648 -702.195)" fill="none"/>
  <path id="패스_22184" data-name="패스 22184" d="M708.291,706.488a23.41,23.41,0,0,1-.915,4.535,2.453,2.453,0,0,1,1.123,2.485,18.562,18.562,0,0,1,3.024,2.323,17.237,17.237,0,0,0,4.631-11.208h-5.877A2.484,2.484,0,0,1,708.291,706.488Z" transform="translate(-682.414 -687.08)" fill="none"/>
  <path id="패스_22185" data-name="패스 22185" d="M654.288,654.852A17.451,17.451,0,1,0,671.739,672.3,17.47,17.47,0,0,0,654.288,654.852ZM665.148,672.3a2.347,2.347,0,0,1-.067.549h5.559a16.3,16.3,0,0,1-4.381,10.6,17.535,17.535,0,0,0-2.86-2.2,2.334,2.334,0,0,1-.422,1.017,16.411,16.411,0,0,1,2.516,1.948,16.308,16.308,0,0,1-9.544,4.371,19.761,19.761,0,0,0,4.548-5.429,2.338,2.338,0,0,1-.959-.5,18.555,18.555,0,0,1-5.251,5.86,18.77,18.77,0,0,1-6.115-7.563,16.447,16.447,0,0,1,10.611-.553,2.343,2.343,0,0,1,.475-.994,17.553,17.553,0,0,0-11.505.546,21.066,21.066,0,0,1-1.4-7.1h14.168a2.341,2.341,0,0,1-.067-.549,2.365,2.365,0,0,1,.064-.536H646.348a21.263,21.263,0,0,1,.842-5.469,2.333,2.333,0,0,1-1-.444,22.345,22.345,0,0,0-.927,5.913h-7.329a16.3,16.3,0,0,1,4.38-10.6,17.587,17.587,0,0,0,3.012,2.293,2.342,2.342,0,0,1,.485-.977,16.454,16.454,0,0,1-2.731-2.084,16.311,16.311,0,0,1,9.544-4.371,19.793,19.793,0,0,0-4.662,5.64,2.328,2.328,0,0,1,1.008.4,18.583,18.583,0,0,1,5.317-5.97,18.769,18.769,0,0,1,6.115,7.563,16.438,16.438,0,0,1-10.455.6,2.336,2.336,0,0,1-.372,1.023,17.534,17.534,0,0,0,11.246-.617,20.877,20.877,0,0,1,1.3,5.389,2.284,2.284,0,0,1,1.082-.063,21.97,21.97,0,0,0-1.386-5.762,17.448,17.448,0,0,0,4.444-3.062,16.3,16.3,0,0,1,4.381,10.6h-5.555A2.358,2.358,0,0,1,665.148,672.3Zm-27.213.549h7.329a22.145,22.145,0,0,0,1.5,7.539,17.43,17.43,0,0,0-4.444,3.062A16.3,16.3,0,0,1,637.935,672.845Zm9.244,8.541a19.982,19.982,0,0,0,5.446,7.2,16.308,16.308,0,0,1-9.544-4.371A16.337,16.337,0,0,1,647.18,681.386Zm8.771-25.366a16.308,16.308,0,0,1,9.544,4.371,16.339,16.339,0,0,1-4.1,2.827A19.985,19.985,0,0,0,655.951,656.02Z" transform="translate(-636.837 -654.852)" fill="#e6e6e6"/>
  <path id="패스_22186" data-name="패스 22186" d="M705.621,713.93a23.408,23.408,0,0,0,.915-4.535,2.508,2.508,0,0,1-.427.039,2.477,2.477,0,0,1-.716-.106,22.228,22.228,0,0,1-.857,4.228A2.465,2.465,0,0,1,705.621,713.93Z" transform="translate(-680.141 -689.795)" fill="#e6e6e6"/>
  <path id="패스_22187" data-name="패스 22187" d="M664.709,677.458a2.47,2.47,0,0,0,.393-1.081,2.442,2.442,0,0,0,.018-.287,2.486,2.486,0,1,0-.411,1.368Z" transform="translate(-651.798 -666.886)" fill="#f9a532"/>
  <path id="패스_22188" data-name="패스 22188" d="M701.214,720.742a2.465,2.465,0,0,0-1.086-.375,2.41,2.41,0,0,0-.242-.013,2.49,2.49,0,1,0,1.328.387Z" transform="translate(-675.701 -696.886)" fill="#f9a532"/>
  <path id="패스_22189" data-name="패스 22189" d="M705.062,696.644a2.491,2.491,0,1,0,1.991,1.879A2.488,2.488,0,0,0,705.062,696.644Z" transform="translate(-678.75 -681.645)" fill="#f9a532"/>
</svg>
