<svg xmlns="http://www.w3.org/2000/svg" xmlns:xlink="http://www.w3.org/1999/xlink" width="42" height="42" viewBox="0 0 42 42"><defs><style>.a{fill:#fff;}.b{fill:#f49533;}.c{filter:url(#a);}</style><filter id="a" x="0" y="0" width="42" height="42" filterUnits="userSpaceOnUse"><feOffset dy="1" input="SourceAlpha"/><feGaussianBlur stdDeviation="1" result="b"/><feFlood flood-opacity="0.161"/><feComposite operator="in" in2="b"/><feComposite in="SourceGraphic"/></filter></defs><g transform="translate(-247 -35)"><g class="c" transform="matrix(1, 0, 0, 1, 247, 35)"><circle class="a" cx="18" cy="18" r="18" transform="translate(3 2)"/></g><g transform="translate(257.875 43.75)"><path class="b" d="M366.621,1930.346a10.376,10.376,0,0,0,5.617-19.341,1.353,1.353,0,1,0-1.361,2.339h0a7.677,7.677,0,1,1-7.672-.007,1.353,1.353,0,0,0-1.354-2.344,10.372,10.372,0,0,0,4.77,19.353Z" transform="translate(-356.652 -1908.902)"/><path class="b" d="M483.007,1892.007a1.353,1.353,0,0,0,1.354-1.353v-4.937a1.354,1.354,0,0,0-2.707,0v4.938A1.353,1.353,0,0,0,483.007,1892.007Z" transform="translate(-472.629 -1884.363)"/></g></g></svg>