<svg xmlns="http://www.w3.org/2000/svg" width="56.091" height="62.022" viewBox="0 0 56.091 62.022">
  <g id="그룹_3402" data-name="그룹 3402" transform="translate(-108.466 -610.338)">
    <g id="그룹_3401" data-name="그룹 3401" transform="translate(108.466 610.338)">
      <g id="그룹_3394" data-name="그룹 3394" transform="translate(17.437)">
        <g id="그룹_3392" data-name="그룹 3392">
          <path id="패스_23832" data-name="패스 23832" d="M149.657,616.15l-9.262-3.562v23.869h18.525V612.588Z" transform="translate(-139.049 -611.242)" fill="#27b2c1"/>
          <path id="패스_23833" data-name="패스 23833" d="M158.015,636.9H139.49a1.346,1.346,0,0,1-1.346-1.346V611.684a1.346,1.346,0,0,1,1.829-1.256l8.779,3.376,8.779-3.376a1.345,1.345,0,0,1,1.829,1.256v23.869A1.346,1.346,0,0,1,158.015,636.9Zm-17.18-2.691h15.834V613.643l-7.434,2.859a1.338,1.338,0,0,1-.966,0l-7.434-2.859Z" transform="translate(-138.144 -610.338)" fill="#595757"/>
        </g>
        <g id="그룹_3393" data-name="그룹 3393" transform="translate(0 35.463)">
          <path id="패스_23834" data-name="패스 23834" d="M149.657,692.195l9.262,3.562V671.889H140.395v23.868Z" transform="translate(-139.049 -670.543)" fill="#27b2c1"/>
          <path id="패스_23835" data-name="패스 23835" d="M158.015,696.2a1.344,1.344,0,0,1-.483-.09l-8.779-3.376-8.779,3.376a1.346,1.346,0,0,1-1.829-1.255V670.984a1.346,1.346,0,0,1,1.346-1.346h18.525a1.346,1.346,0,0,1,1.346,1.346v23.868a1.346,1.346,0,0,1-1.346,1.346Zm-9.263-6.253a1.346,1.346,0,0,1,.483.09l7.434,2.858V672.33H140.835v20.563l7.434-2.858A1.34,1.34,0,0,1,148.752,689.945Z" transform="translate(-138.144 -669.639)" fill="#595757"/>
        </g>
      </g>
      <g id="그룹_3400" data-name="그룹 3400" transform="translate(0 11.85)">
        <g id="그룹_3398" data-name="그룹 3398">
          <g id="그룹_3395" data-name="그룹 3395" transform="translate(0)">
            <rect id="사각형_737" data-name="사각형 737" width="53.4" height="35.63" transform="translate(1.345 1.346)" fill="#fff"/>
            <path id="패스_23836" data-name="패스 23836" d="M163.732,668.475h-53.4a1.345,1.345,0,0,1-1.346-1.346V631.5a1.346,1.346,0,0,1,1.346-1.346h53.4a1.346,1.346,0,0,1,1.346,1.346v35.63A1.346,1.346,0,0,1,163.732,668.475Zm-52.054-2.691h50.709V632.845H111.677Z" transform="translate(-108.986 -630.154)" fill="#595757"/>
          </g>
          <g id="그룹_3396" data-name="그룹 3396" transform="translate(0 11.658)">
            <path id="패스_23837" data-name="패스 23837" d="M137.936,651.9l-26.7,23.972h53.4Z" transform="translate(-109.89 -650.553)" fill="#fff"/>
            <path id="패스_23838" data-name="패스 23838" d="M163.731,676.312h-53.4a1.346,1.346,0,0,1-.9-2.347l26.7-23.972a1.345,1.345,0,0,1,1.8,0l26.7,23.972a1.345,1.345,0,0,1-.9,2.347Zm-49.887-2.691h46.375L137.031,652.8Z" transform="translate(-108.986 -649.649)" fill="#595757"/>
          </g>
          <g id="그룹_3397" data-name="그룹 3397" transform="translate(0)">
            <path id="패스_23839" data-name="패스 23839" d="M137.936,656.376l26.7-23.972h-53.4Z" transform="translate(-109.89 -631.059)" fill="#fff"/>
            <path id="패스_23840" data-name="패스 23840" d="M137.031,656.817a1.344,1.344,0,0,1-.9-.344l-26.7-23.972a1.346,1.346,0,0,1,.9-2.347h53.4a1.346,1.346,0,0,1,.9,2.347l-26.7,23.972A1.341,1.341,0,0,1,137.031,656.817Zm-23.187-23.972,23.187,20.819,23.187-20.819Z" transform="translate(-108.986 -630.154)" fill="#595757"/>
          </g>
        </g>
        <g id="그룹_3399" data-name="그룹 3399" transform="translate(22.236 18.413)">
          <path id="패스_23841" data-name="패스 23841" d="M157.347,667.658a4.464,4.464,0,1,0-4.464,4.464A4.464,4.464,0,0,0,157.347,667.658Z" transform="translate(-147.073 -661.849)" fill="#27b2c1"/>
          <path id="패스_23842" data-name="패스 23842" d="M151.979,672.563a5.809,5.809,0,1,1,5.809-5.81A5.816,5.816,0,0,1,151.979,672.563Zm0-8.927a3.118,3.118,0,1,0,3.118,3.118A3.122,3.122,0,0,0,151.979,663.636Z" transform="translate(-146.169 -660.945)" fill="#595757"/>
        </g>
      </g>
    </g>
  </g>
</svg>
