<svg xmlns="http://www.w3.org/2000/svg" xmlns:xlink="http://www.w3.org/1999/xlink" width="42" height="42" viewBox="0 0 42 42"><defs><style>.a{fill:#df130d;}.b{fill:#ffcd00;}.c{filter:url(#a);}</style><filter id="a" x="0" y="0" width="42" height="42" filterUnits="userSpaceOnUse"><feOffset dy="1" input="SourceAlpha"/><feGaussianBlur stdDeviation="1" result="b"/><feFlood flood-opacity="0.161"/><feComposite operator="in" in2="b"/><feComposite in="SourceGraphic"/></filter></defs><g transform="translate(2512.497 -157.613)"><g transform="translate(-2509.497 159.613)"><g transform="translate(0)"><g class="c" transform="matrix(1, 0, 0, 1, -3, -2)"><path class="a" d="M3267.537,2773.6a18,18,0,1,1,13.144,21.792,17.993,17.993,0,0,1-13.144-21.792" transform="translate(-3264.01 -2757.92)"/></g></g><path class="b" d="M3320.878,2815.267l-.851,1.028-1.238-.494.708,1.127-.85,1.024,1.293-.329.711,1.127.084-1.331,1.293-.329-1.238-.493Zm4.93-2.8h-1.334l-.407-1.268-.414,1.269h-1.331l1.076.782-.413,1.268,1.079-.782,1.077.784-.411-1.269Zm-2.17-4.881.2,1.317.611-1.188,1.314.213-.941-.943.608-1.187-1.189.6-.938-.943.2,1.314-1.187.6Zm-2.752-6.1-.851,1.027-1.235-.492.709,1.125-.851,1.026,1.291-.33.712,1.127.087-1.331,1.291-.329-1.235-.491Zm-9.3,5.86-1.25-3.849-1.253,3.849h-4.049l3.276,2.381-1.251,3.851,3.276-2.382,3.273,2.382-1.249-3.851,3.275-2.381Z" transform="translate(-3301.531 -2797.658)"/></g></g></svg>