<svg id="그룹_3369" data-name="그룹 3369" xmlns="http://www.w3.org/2000/svg" width="53.427" height="63.28" viewBox="0 0 53.427 63.28">
  <g id="그룹_3368" data-name="그룹 3368">
    <g id="그룹_3367" data-name="그룹 3367" transform="translate(0)">
      <g id="그룹_3364" data-name="그룹 3364" transform="translate(1.544)">
        <g id="그룹_3363" data-name="그룹 3363">
          <g id="그룹_3360" data-name="그룹 3360">
            <path id="패스_23786" data-name="패스 23786" d="M353.465,988.295a23.8,23.8,0,1,0-23.5,24.088A23.8,23.8,0,0,0,353.465,988.295Z" transform="translate(-304.499 -963.418)" fill="#fff"/>
            <path id="패스_23787" data-name="패스 23787" d="M328.786,1012.88a25.17,25.17,0,0,1-.3-50.338l.317,0a25.17,25.17,0,0,1,.3,50.338Zm.012-47.594-.283,0a22.424,22.424,0,0,0,.27,44.846l.282,0a22.424,22.424,0,0,0-.27-44.846Z" transform="translate(-303.622 -962.541)" fill="#595757"/>
          </g>
          <g id="그룹_3362" data-name="그룹 3362" transform="translate(2.698 34.274)">
            <g id="그룹_3361" data-name="그룹 3361">
              <path id="패스_23788" data-name="패스 23788" d="M310.293,1021.489a23.795,23.795,0,0,0,42.465-.523" transform="translate(-308.92 -1019.593)" fill="#efefef"/>
              <path id="패스_23789" data-name="패스 23789" d="M330.509,1034.78a25.064,25.064,0,0,1-22.309-13.533,1.373,1.373,0,0,1,2.434-1.272,22.421,22.421,0,0,0,40.015-.492,1.373,1.373,0,1,1,2.464,1.211,25.065,25.065,0,0,1-22.286,14.085Z" transform="translate(-308.043 -1018.715)" fill="#595757"/>
            </g>
          </g>
        </g>
        <path id="패스_23790" data-name="패스 23790" d="M335.207,1012.881c-8.485,0-15.132-11.056-15.132-25.17s6.647-25.17,15.132-25.17,15.132,11.056,15.132,25.17S343.691,1012.881,335.207,1012.881Zm0-47.594c-6.713,0-12.386,10.269-12.386,22.424s5.673,22.425,12.386,22.425,12.386-10.269,12.386-22.425S341.92,965.287,335.207,965.287Z" transform="translate(-310.036 -962.541)" fill="#595757"/>
        <path id="패스_23791" data-name="패스 23791" d="M344,1012.8a1.373,1.373,0,0,1-1.373-1.373V964.259a1.373,1.373,0,0,1,2.746,0v47.173A1.373,1.373,0,0,1,344,1012.8Z" transform="translate(-318.827 -962.675)" fill="#595757"/>
        <path id="패스_23792" data-name="패스 23792" d="M352.514,1004.289H305.341a1.373,1.373,0,1,1,0-2.746h47.173a1.373,1.373,0,1,1,0,2.746Z" transform="translate(-303.757 -977.746)" fill="#595757"/>
      </g>
      <g id="그룹_3365" data-name="그룹 3365" transform="translate(4.984 44.248)">
        <rect id="사각형_734" data-name="사각형 734" width="40.714" height="16.286" transform="translate(1.373 1.373)" fill="#6ca854"/>
        <path id="패스_23793" data-name="패스 23793" d="M351.347,1054.093H310.633a1.373,1.373,0,0,1-1.373-1.373v-16.287a1.373,1.373,0,0,1,1.373-1.373h40.714a1.373,1.373,0,0,1,1.373,1.373v16.287A1.373,1.373,0,0,1,351.347,1054.093Zm-39.342-2.746h37.969v-13.541H312.006Z" transform="translate(-309.26 -1035.061)" fill="#595757"/>
      </g>
      <g id="그룹_3366" data-name="그룹 3366" transform="translate(0 60.534)">
        <line id="선_145" data-name="선 145" x1="50.682" transform="translate(1.373 1.373)" fill="#82ffa5"/>
        <path id="패스_23794" data-name="패스 23794" d="M353.147,1064.5H302.465a1.373,1.373,0,1,1,0-2.746h50.682a1.373,1.373,0,1,1,0,2.746Z" transform="translate(-301.092 -1061.754)" fill="#595757"/>
      </g>
    </g>
    <path id="패스_23795" data-name="패스 23795" d="M348.569,1051.419H324.163a1.373,1.373,0,1,1,0-2.746h24.406a1.373,1.373,0,1,1,0,2.746Z" transform="translate(-309.551 -996.12)" fill="#595757"/>
  </g>
</svg>
