<svg id="그룹_2218" data-name="그룹 2218" xmlns="http://www.w3.org/2000/svg" width="34.11" height="31.781" viewBox="0 0 34.11 31.781">
  <path id="패스_22135" data-name="패스 22135" d="M296.617,1071.412a2.073,2.073,0,1,0-2.026-2.073A2.052,2.052,0,0,0,296.617,1071.412Z" transform="translate(-289.732 -1048.499)" fill="none"/>
  <path id="패스_22136" data-name="패스 22136" d="M292.595,1085.945h-5.861a2.9,2.9,0,0,0-2.894,2.9v2.459h11.65v-2.459A2.9,2.9,0,0,0,292.595,1085.945Z" transform="translate(-282.779 -1060.578)" fill="none"/>
  <path id="패스_22137" data-name="패스 22137" d="M354.186,1071.412a2.073,2.073,0,1,0-2.026-2.073A2.052,2.052,0,0,0,354.186,1071.412Z" transform="translate(-326.961 -1048.499)" fill="none"/>
  <path id="패스_22138" data-name="패스 22138" d="M350.163,1085.945H344.3a2.9,2.9,0,0,0-2.9,2.9v2.459h11.651v-2.459A2.9,2.9,0,0,0,350.163,1085.945Z" transform="translate(-320.008 -1060.578)" fill="none"/>
  <path id="패스_22139" data-name="패스 22139" d="M324.274,1038.722a2.9,2.9,0,0,0-2.9-2.895h-5.861a2.9,2.9,0,0,0-2.895,2.895v2.459h11.65Z" transform="translate(-301.393 -1028.167)" fill="none"/>
  <path id="패스_22140" data-name="패스 22140" d="M325.4,1021.293a2.073,2.073,0,1,0-2.026-2.073A2.052,2.052,0,0,0,325.4,1021.293Z" transform="translate(-308.346 -1016.087)" fill="none"/>
  <path id="패스_22141" data-name="패스 22141" d="M313.287,1074.182a.53.53,0,0,0,.375.991l3-1.133a2.371,2.371,0,0,1-.366-.995Z" transform="translate(-301.601 -1052.236)" fill="#e6e6e6"/>
  <path id="패스_22142" data-name="패스 22142" d="M337.758,1075.173a.53.53,0,1,0,.375-.991l-3.007-1.136a2.366,2.366,0,0,1-.366.995Z" transform="translate(-315.708 -1052.236)" fill="#e6e6e6"/>
  <path id="패스_22143" data-name="패스 22143" d="M328.67,1060.468v-2.274a.53.53,0,1,0-1.06,0v2.274a2.332,2.332,0,0,1,1.06,0Z" transform="translate(-311.085 -1042.289)" fill="#e6e6e6"/>
  <path id="패스_22144" data-name="패스 22144" d="M323.461,1020.413a3.133,3.133,0,1,0-3.086-3.132A3.113,3.113,0,0,0,323.461,1020.413Zm0-5.206a2.073,2.073,0,1,1-2.026,2.073A2.053,2.053,0,0,1,323.461,1015.207Z" transform="translate(-306.406 -1014.147)" fill="#e6e6e6"/>
  <path id="패스_22145" data-name="패스 22145" d="M310.153,1040.3h12.71a.53.53,0,0,0,.53-.53v-2.989a3.959,3.959,0,0,0-3.955-3.955h-5.861a3.959,3.959,0,0,0-3.955,3.955v2.989A.53.53,0,0,0,310.153,1040.3Zm.53-3.519a2.9,2.9,0,0,1,2.895-2.895h5.861a2.9,2.9,0,0,1,2.9,2.895v2.459H310.683Z" transform="translate(-299.453 -1026.227)" fill="#e6e6e6"/>
  <path id="패스_22146" data-name="패스 22146" d="M294.677,1070.532a3.133,3.133,0,1,0-3.086-3.133A3.113,3.113,0,0,0,294.677,1070.532Zm0-5.205a2.073,2.073,0,1,1-2.026,2.073A2.052,2.052,0,0,1,294.677,1065.327Z" transform="translate(-287.792 -1046.559)" fill="#e6e6e6"/>
  <path id="패스_22147" data-name="패스 22147" d="M290.654,1082.945h-5.861a3.959,3.959,0,0,0-3.954,3.955v2.989a.53.53,0,0,0,.53.53h12.71a.53.53,0,0,0,.53-.53V1086.9A3.959,3.959,0,0,0,290.654,1082.945Zm2.895,6.414H281.9V1086.9a2.9,2.9,0,0,1,2.894-2.9h5.861a2.9,2.9,0,0,1,2.895,2.9Z" transform="translate(-280.839 -1058.638)" fill="#e6e6e6"/>
  <path id="패스_22148" data-name="패스 22148" d="M352.246,1070.532a3.133,3.133,0,1,0-3.086-3.133A3.114,3.114,0,0,0,352.246,1070.532Zm0-5.205a2.073,2.073,0,1,1-2.026,2.073A2.052,2.052,0,0,1,352.246,1065.327Z" transform="translate(-325.021 -1046.559)" fill="#e6e6e6"/>
  <path id="패스_22149" data-name="패스 22149" d="M348.223,1082.945h-5.86a3.96,3.96,0,0,0-3.955,3.955v2.989a.53.53,0,0,0,.53.53h12.71a.53.53,0,0,0,.53-.53V1086.9A3.96,3.96,0,0,0,348.223,1082.945Zm2.9,6.414H339.468V1086.9a2.9,2.9,0,0,1,2.9-2.9h5.86a2.9,2.9,0,0,1,2.9,2.9Z" transform="translate(-318.068 -1058.638)" fill="#e6e6e6"/>
  <path id="패스_22150" data-name="패스 22150" d="M327.109,1068.12a2.383,2.383,0,1,0-.366.995A2.367,2.367,0,0,0,327.109,1068.12Z" transform="translate(-307.692 -1047.31)" fill="#f9a532"/>
</svg>
