<svg id="그룹_2221" data-name="그룹 2221" xmlns="http://www.w3.org/2000/svg" width="39.158" height="30.915" viewBox="0 0 39.158 30.915">
  <path id="패스_22164" data-name="패스 22164" d="M324.416,1089.844a3.218,3.218,0,0,0,3.2-2.991h-6.409A3.218,3.218,0,0,0,324.416,1089.844Z" transform="translate(-304.837 -1060.146)" fill="none"/>
  <path id="패스_22165" data-name="패스 22165" d="M315.335,1030.12a9.415,9.415,0,0,0-9.4,9.4v9.562h18.807v-9.562A9.415,9.415,0,0,0,315.335,1030.12Z" transform="translate(-295.757 -1026.429)" fill="none"/>
  <path id="패스_22166" data-name="패스 22166" d="M322.633,1089.844a3.218,3.218,0,0,1-3.2-2.991h-1.217a4.427,4.427,0,0,0,8.844,0h-1.217A3.218,3.218,0,0,1,322.633,1089.844Z" transform="translate(-303.054 -1060.146)" fill="#e6e6e6"/>
  <path id="패스_22167" data-name="패스 22167" d="M304.149,1034.116a9.4,9.4,0,1,1,18.807,0v9.562h1.217v-9.562a10.634,10.634,0,0,0-10.02-10.6.574.574,0,0,0,.008-.084v-1.8a.609.609,0,1,0-1.217,0v1.8a.578.578,0,0,0,.008.084,10.634,10.634,0,0,0-10.02,10.6v9.562h1.217Z" transform="translate(-293.974 -1021.021)" fill="#e6e6e6"/>
  <path id="패스_22168" data-name="패스 22168" d="M320.809,1076.869H297.86a2.025,2.025,0,1,0,0,4.05h22.948a2.025,2.025,0,1,0,0-4.05Z" transform="translate(-289.756 -1054.212)" fill="#f9a532"/>
  <path id="패스_22169" data-name="패스 22169" d="M292.139,1053.945a4.121,4.121,0,0,1,0-5.821.609.609,0,0,0-.86-.861,5.339,5.339,0,0,0,0,7.542.608.608,0,0,0,.86-.861Z" transform="translate(-286.121 -1036.511)" fill="#e6e6e6"/>
  <path id="패스_22170" data-name="패스 22170" d="M284.323,1041.85a.608.608,0,0,0-.86-.86,8.944,8.944,0,0,0,0,12.633.608.608,0,0,0,.86-.86A7.725,7.725,0,0,1,284.323,1041.85Z" transform="translate(-280.85 -1032.783)" fill="#e6e6e6"/>
  <path id="패스_22171" data-name="패스 22171" d="M363.137,1047.263a.609.609,0,0,0-.86.861,4.121,4.121,0,0,1,0,5.821.608.608,0,1,0,.86.861A5.34,5.34,0,0,0,363.137,1047.263Z" transform="translate(-329.137 -1036.511)" fill="#e6e6e6"/>
  <path id="패스_22172" data-name="패스 22172" d="M369.411,1040.988a.608.608,0,0,0-.86.86,7.726,7.726,0,0,1,0,10.912.608.608,0,0,0,.86.86A8.943,8.943,0,0,0,369.411,1040.988Z" transform="translate(-332.866 -1032.782)" fill="#e6e6e6"/>
</svg>
