<svg id="그룹_2220" data-name="그룹 2220" xmlns="http://www.w3.org/2000/svg" width="34" height="29.637" viewBox="0 0 34 29.637">
  <path id="패스_22151" data-name="패스 22151" d="M677.766,717.638a3.6,3.6,0,1,0-3.6-3.6A3.6,3.6,0,0,0,677.766,717.638Zm0-6.2a2.6,2.6,0,1,1-2.6,2.6A2.6,2.6,0,0,1,677.766,711.438Z" transform="translate(-661.02 -692.78)" fill="none"/>
  <path id="패스_22152" data-name="패스 22152" d="M681.546,719.362A1.545,1.545,0,1,0,680,717.817,1.546,1.546,0,0,0,681.546,719.362Z" transform="translate(-664.799 -696.559)" fill="none"/>
  <path id="패스_22153" data-name="패스 22153" d="M639.837,663.3V687.6h9.4l.321-.447a6.967,6.967,0,0,1-.839-2.026l-1.574-.258v-2.748l1.574-.258a6.962,6.962,0,0,1,.839-2.026l-.929-1.295,1.943-1.943,1.295.93a6.958,6.958,0,0,1,2.026-.839l.258-1.574H656.9l.258,1.574a6.935,6.935,0,0,1,2.026.839l.813-.584V663.3Zm10.2,12.438H644.43a.528.528,0,0,1,0-1.057h5.609a.528.528,0,0,1,0,1.057Zm5.365-3.9H644.43a.528.528,0,1,1,0-1.057H655.4a.528.528,0,1,1,0,1.057Zm0-3.9H644.43a.528.528,0,0,1,0-1.057H655.4a.528.528,0,1,1,0,1.057Z" transform="translate(-638.781 -662.24)" fill="none"/>
  <path id="패스_22154" data-name="패스 22154" d="M713.02,691.093a3.6,3.6,0,0,0-.436-1.053.528.528,0,0,1,.02-.585l.293-.408-.524-.524-.408.293a.529.529,0,0,1-.585.021,3.613,3.613,0,0,0-1.055-.437.528.528,0,0,1-.4-.428l-.081-.495h-.741l-.081.495a.53.53,0,0,1-.4.428,3.635,3.635,0,0,0-1.055.437.528.528,0,0,1-.585-.021l-.407-.292-.524.524.293.408a.528.528,0,0,1,.02.585,3.616,3.616,0,0,0-.436,1.053.529.529,0,0,1-.428.4l-.5.081v.742l.5.081a.529.529,0,0,1,.428.4,3.607,3.607,0,0,0,.436,1.054.527.527,0,0,1-.021.585l-.293.408.524.524.407-.293a.529.529,0,0,1,.585-.021,3.63,3.63,0,0,0,1.055.437.528.528,0,0,1,.4.428l.081.5h.741l.081-.5a.527.527,0,0,1,.4-.428,3.622,3.622,0,0,0,1.055-.437.529.529,0,0,1,.585.021l.408.293.524-.524-.293-.408a.528.528,0,0,1-.021-.585,3.6,3.6,0,0,0,.436-1.054.529.529,0,0,1,.428-.4l.5-.081v-.742l-.5-.081A.528.528,0,0,1,713.02,691.093Zm-3.544,2.85a2,2,0,1,1,2-2A2,2,0,0,1,709.476,693.943Z" transform="translate(-681 -677.905)" fill="none"/>
  <path id="패스_22155" data-name="패스 22155" d="M715.961,697.486a.942.942,0,1,0,.943.943A.943.943,0,0,0,715.961,697.486Z" transform="translate(-687.485 -684.389)" fill="none"/>
  <path id="패스_22156" data-name="패스 22156" d="M647.3,685.66h-9.4V661.353h20.161V675l.481-.346.575.575V660.825a.528.528,0,0,0-.528-.528H637.365a.529.529,0,0,0-.528.528v25.364a.528.528,0,0,0,.528.528H646.9l-.209-.209Z" transform="translate(-636.837 -660.297)" fill="#e6e6e6"/>
  <path id="패스_22157" data-name="패스 22157" d="M662.882,673.455H651.907a.528.528,0,0,0,0,1.057h10.975a.528.528,0,0,0,0-1.057Z" transform="translate(-646.258 -668.821)" fill="#e6e6e6"/>
  <path id="패스_22158" data-name="패스 22158" d="M662.882,684.535H651.907a.528.528,0,0,0,0,1.057h10.975a.528.528,0,0,0,0-1.057Z" transform="translate(-646.258 -675.999)" fill="#e6e6e6"/>
  <path id="패스_22159" data-name="패스 22159" d="M657.516,695.615h-5.609a.528.528,0,0,0,0,1.057h5.609a.528.528,0,0,0,0-1.057Z" transform="translate(-646.258 -683.177)" fill="#e6e6e6"/>
  <path id="패스_22160" data-name="패스 22160" d="M674.941,701.589l.93-1.295-1.368-1.368-.575-.575-.481.346-.813.584a6.934,6.934,0,0,0-2.026-.839l-.258-1.574H667.6l-.258,1.574a6.96,6.96,0,0,0-2.026.839l-1.295-.93-1.943,1.943.93,1.295a6.954,6.954,0,0,0-.839,2.026l-1.574.258v2.748l1.574.258a6.96,6.96,0,0,0,.839,2.026l-.321.447-.608.848.209.209,1.734,1.734,1.295-.93a6.942,6.942,0,0,0,2.026.838l.258,1.574h2.748l.258-1.574a6.936,6.936,0,0,0,2.026-.838l1.295.93,1.943-1.943-.93-1.295a6.958,6.958,0,0,0,.839-2.026l1.574-.258v-2.748l-1.574-.258A6.951,6.951,0,0,0,674.941,701.589Zm-5.966.059a3.6,3.6,0,1,1-3.6,3.6A3.6,3.6,0,0,1,668.976,701.648Z" transform="translate(-652.229 -683.989)" fill="#f9a532"/>
  <path id="패스_22161" data-name="패스 22161" d="M712.614,688.66l-.606-.1a4.634,4.634,0,0,0-.292-.707l.358-.5a.529.529,0,0,0-.056-.682l-1.158-1.158a.528.528,0,0,0-.682-.056l-.5.358a4.692,4.692,0,0,0-.707-.293l-.1-.606a.528.528,0,0,0-.522-.442h-1.638a.528.528,0,0,0-.521.442l-.1.606a4.689,4.689,0,0,0-.707.293l-.5-.357a.527.527,0,0,0-.682.055l-1.158,1.158a.528.528,0,0,0-.056.682l.358.5a4.646,4.646,0,0,0-.292.707l-.606.1a.529.529,0,0,0-.443.522v1.638a.528.528,0,0,0,.443.522l.606.1a4.658,4.658,0,0,0,.292.707l-.357.5a.527.527,0,0,0,.055.681l1.158,1.159a.529.529,0,0,0,.682.056l.5-.359a4.63,4.63,0,0,0,.706.292l.1.606a.529.529,0,0,0,.521.443h1.638a.529.529,0,0,0,.522-.443l.1-.606a4.7,4.7,0,0,0,.706-.292l.5.359a.529.529,0,0,0,.682-.056l1.158-1.158a.528.528,0,0,0,.056-.682l-.359-.5a4.654,4.654,0,0,0,.293-.707l.606-.1a.528.528,0,0,0,.443-.522v-1.638A.529.529,0,0,0,712.614,688.66ZM712,690.372l-.5.081a.529.529,0,0,0-.428.4,3.6,3.6,0,0,1-.436,1.054.528.528,0,0,0,.021.585l.293.408-.524.524-.408-.293a.529.529,0,0,0-.585-.021,3.616,3.616,0,0,1-1.055.437.527.527,0,0,0-.4.428l-.081.5h-.741l-.081-.5a.529.529,0,0,0-.4-.428,3.627,3.627,0,0,1-1.055-.437.529.529,0,0,0-.585.021l-.407.293-.524-.524.293-.408a.527.527,0,0,0,.021-.585,3.6,3.6,0,0,1-.436-1.054.529.529,0,0,0-.428-.4l-.5-.081v-.742l.5-.081a.529.529,0,0,0,.428-.4,3.61,3.61,0,0,1,.436-1.053.528.528,0,0,0-.021-.585l-.293-.408.524-.524.407.292a.529.529,0,0,0,.585.021,3.634,3.634,0,0,1,1.055-.437.53.53,0,0,0,.4-.428l.081-.495h.741l.081.495a.528.528,0,0,0,.4.428,3.61,3.61,0,0,1,1.055.437.53.53,0,0,0,.585-.021l.408-.293.524.524-.293.408a.528.528,0,0,0-.02.585,3.6,3.6,0,0,1,.436,1.053.528.528,0,0,0,.428.4l.5.081Z" transform="translate(-679.056 -675.961)" fill="#e6e6e6"/>
  <path id="패스_22162" data-name="패스 22162" d="M714.017,694.486a2,2,0,1,0,2,2A2,2,0,0,0,714.017,694.486Zm0,2.941a.942.942,0,1,1,.942-.943A.943.943,0,0,1,714.017,697.427Z" transform="translate(-685.541 -682.445)" fill="#e6e6e6"/>
  <path id="패스_22163" data-name="패스 22163" d="M679.6,718.475a2.6,2.6,0,1,0-2.6-2.6A2.6,2.6,0,0,0,679.6,718.475Zm0-4.146a1.545,1.545,0,1,1-1.545,1.544A1.546,1.546,0,0,1,679.6,714.329Z" transform="translate(-662.856 -694.616)" fill="#e6e6e6"/>
</svg>
