<svg xmlns="http://www.w3.org/2000/svg" width="197.498" height="314.282" viewBox="0 0 197.498 314.282">
  <g id="그룹_3744" data-name="그룹 3744" transform="translate(-196.997 -2155.812)">
    <g id="그룹_3720" data-name="그룹 3720" transform="translate(199 2157.812)">
      <g id="그룹_3719" data-name="그룹 3719" transform="translate(0 0)">
        <path id="패스_24065" data-name="패스 24065" d="M1898.881,1038.92c-3.648.508-3.97-.185-4.986-1.432a2.851,2.851,0,0,0-3.6-.092c-5.218-.139-5.863-.139-6.787,1.432-1.247,1.478-3,.831-4.432.785a4.341,4.341,0,0,0-4.062.877,2.415,2.415,0,0,1-3.232.277c-1.155-.738-2.493-.6-4.571-.647l-.033-.028a53.1,53.1,0,0,0-5.092,5.269c-1.454,1.87-2.216,3.393-3.255,4.709-2.008,2.562-1.731,3.532-1.593,6.51.069,1.731-.831,2.077-2.216,3.186-.97.277-1.247.762-1.87,1.454a2.788,2.788,0,0,1-2.077-.415c-.139-2.216-2.008-1.87-2.008-1.87-2.286,0-.762.762-5.61.97-1.385-.07-2.908-.07-3.948,1.316.208,1.593-.415,3.048-.623,4.71-.97,1.385-3.186.416-4.294-.416-2.216-.069-2.77,1.731-2.078,3.948.277,2.77-.346,3.393-2.355,4.086-1.246.831-1.731,1.731-.554,3.809,2.078,2.009,1.8,4.017,1.177,6.026-.208,2.077-.139,4.363-.624,5.4-.554,6.371.485,6.718,3.048,7.757,3.186.416,3.532,2.632,4.156,5.679.416,3.047-.416,2.77-2.355,2.7-2.493.069-3.74,2.286-5.194,4.363a10.3,10.3,0,0,1-5.194,1.246c-.126-.171-.255-.327-.385-.473.018.029,4.214,6.844,2.739,9.646l-.121.257a33.264,33.264,0,0,0,4.971,4.488,28.094,28.094,0,0,0,5.469,3.072c3.232,1.108,5.31,1.939,6.233,2.909a2.427,2.427,0,0,1,.462,3.463c-.786,2.586-1.108,3.926,1.524,3.833,3.047-.093,4.109-.647,5.494-.6,2.54-.047,1.523-.739,4.248-.739,1.247.046.462-.554,6.465-.323a15.093,15.093,0,0,1,3.832,1.43c2.17.877,3.324,1.385,3.879,2.124.739.507,4.248.276,5.4.23a3.764,3.764,0,0,1,2.77-.554c.739-.831,1.34-.506,2.4-1.154a10.149,10.149,0,0,0,3.093-2.263,2.817,2.817,0,0,1,2.632.6c1.063.184,1.061,1.015,3.463.738,1.755-1.616,4.294-3.647,5.541-4.94,1.57-1.155,2.77-1.755,5.125-.878a7.353,7.353,0,0,1,4.2,1.986c.739.462,1.109.553,2.955.369.97-.646,1.755-1.846,4.063-1.384a29.206,29.206,0,0,0,3.156-.059,15.1,15.1,0,0,0,.006-3.289c.277-3.186,1.177-2.285,1.87-4.848,1.039-2.839,1.177-5.471,1.662-8.449a28.819,28.819,0,0,0,1.177-8.38c-.692-2.632-1.939-1.8-2.77-1.108-1.246,2.008-1.246,1.8-2.978,3.047-1.8.623-1.177-2.909-.692-4.64.416-1.939-.693-2.909-1.593-4.363a2.8,2.8,0,0,1-.139-3.394,78.227,78.227,0,0,1,1.87-11.5c1.177-6.3.623-6.3.623-8.726a15.234,15.234,0,0,1-1.315-6.995,70.275,70.275,0,0,0,1.731-11.7,59.59,59.59,0,0,0-1.524-11.912c-1.939-5.541-1.454-7.133-1.247-9.7.208-2.978-1.87-2.424-2.632-4.086-2.77.554-5.1,2.355-7.041,3.693C1899.989,1036.658,1899.712,1038.089,1898.881,1038.92Z" transform="translate(-1725.47 -937.894)" fill="#e3e4e5" stroke="#fff" stroke-linecap="round" stroke-linejoin="round" stroke-width="4"/>
        <path id="패스_24066" data-name="패스 24066" d="M1705.245,1224.2a4.734,4.734,0,0,0-4.117-1.7,56.89,56.89,0,0,1-6.861-.709c-1.088,1.109-1.572,2.833-4.959,2.833a3.125,3.125,0,0,0-2.031,2.124,11.338,11.338,0,0,1-2.031.739c-1.2-.554-2.678-.278-3.324-2.863-.185-2.123-.462-2.4-2.124-4.155a5.988,5.988,0,0,0-3.878,1.016,15.185,15.185,0,0,0-5.541,1.939,6.778,6.778,0,0,1-3.97.646c-.647-1.662-1.034-2.533-2.586-3.324-1.662,0-2.493-1.2-3.97-1.2a13.028,13.028,0,0,0-4.424,2.207c.482.325.536,1.771-.839,4.1-.623,2.286-5.541,2.632-9.419,3.809s-5.818.762-5.61,2.978c1.662,2.909,1.316,3.186,4.986,3.117,2.078.139,4.017-1.523,6.579-1.731,2.632.485.416,1.247-4.779,4.017-1.731,1.454-.831,2.216,2.147,2.216,2.216-.139.416-.831,2.632-.693,2.286-.138,3.255,0,2.147,1.8-1.454,4.155-2.216,4.086-3.394,3.463-.485-.623-3.117-1.593-5.886-2.77-2.355-.831-1.939.831-2.286,3.393-.554.623-3.878,1.247-3.878,1.247a22.252,22.252,0,0,0-4.987,4.155c.069,2.008,0,3.255,3.393,2.7,1.385,0,.762-.9,4.848-.554,1.731.692,3.186.554,2.77,2.008.831,1.177-6.51.9-6.51.9-5.125,3.116-4.779,3.532-5.4,5.54a7.924,7.924,0,0,1-2.632,3.6c-1.219,1.491,1.6,1.722,2.76,1.926l.018,0c1.8-.79,3.541,2.93,3.541,2.93.06.592.318,2.229,1.368,2.829,1.385.23.971-.6,4.249-.415a7.012,7.012,0,0,0,3.97-4.109c1.477-3.6,1.8-5.447,4.156-5.4.692-.416.692-.554,4.432-.554,1.8.092,2.63.739,4.062,2.493.647,1.754,1.063,2.123,2.864,1.984,1.338-.738.553-2.215,2.4-3.647a1.654,1.654,0,0,1,2.4,1.477c.23,1.986.553,3.048.646,4.341,0,1.015-.045,1.293,1.755,1.523,1.061.369,5.216.185,7.664.139a5.793,5.793,0,0,0,3.232.6c.877.786,2.447.694,4.109.37.831-1.062,1.477-2.54,3.74-2.54a16.271,16.271,0,0,1,5.033.462c.667.058,1.933.251,2.781.386,1.071-1.252,1.427-2.428,2.829-4.658,1.108-1.8.138-3.6-.762-5.54-.762-1.662-2.078-2.909-2.147-5.4.069-1.385.831-2.77,1.593-4.848a13.51,13.51,0,0,1,1.939-6.718,17.837,17.837,0,0,1,3.983-2.775c3.711-1.142,4.8-3.386,5.938-5.8l.121-.257C1709.459,1231.048,1705.263,1224.233,1705.245,1224.2Z" transform="translate(-1606.484 -1052.04)" fill="#e3e4e5" stroke="#fff" stroke-linecap="round" stroke-linejoin="round" stroke-width="4"/>
        <g id="그룹_3715" data-name="그룹 3715" transform="translate(0 210.22)">
          <path id="패스_24067" data-name="패스 24067" d="M1659.818,1582.31a10.944,10.944,0,0,0-.6-2.174c0-.681-.556-.558-.49-2.772a2.455,2.455,0,0,1,1.047-1.953,5.476,5.476,0,0,0,1.335-1.074,2.52,2.52,0,0,1,1.177-.785,21.027,21.027,0,0,0,6.423-3.043,2.365,2.365,0,0,1,1.311-.5c2.548-.195,7.844-.358,8.841-.224.474-.541,1.743.08,2.868-.568a2.342,2.342,0,0,1,1.039-.309c1.545-.084,3.987-.01,4.115.5,1.124.525,1.95-.15,3.374,1.049.866.99,1.323,1.214,1.5,2.1a2.355,2.355,0,0,0,.755,1.278,4.133,4.133,0,0,1,1.569,2.241c-.15.75.9.75.149,1.5-1.2.525-1.575.975-1.349,1.724.3,1.574.45,2.174-.9,3.448-1.108.059-1.671.39-2.749.5a2.576,2.576,0,0,0-1.74.947c-.226.278-.55.434-1.434.354-1.425.151-.975.451-2.249.526a2.64,2.64,0,0,0-1.3.584,2.5,2.5,0,0,1-2.748.057l-.212-.134a2.473,2.473,0,0,0-2.257-.141c-.938.383-2.668.608-3.005.833a2.442,2.442,0,0,1-2.474-.075,6.524,6.524,0,0,1-2.7-.9c-.825-.45-1.35-.15-2.549.45-.675,1.2-1.275,1.124-2.549.524a11.524,11.524,0,0,1-2.924-1.874A2.319,2.319,0,0,1,1659.818,1582.31Z" transform="translate(-1624.594 -1486.606)" fill="#e3e4e5" stroke="#fff" stroke-linecap="round" stroke-linejoin="round" stroke-width="4"/>
          <path id="패스_24068" data-name="패스 24068" d="M1781.542,1489.575c2.424-.554-1.108-3.116-1.108-3.116-1.177-.069-2.216,2.147-2.216,2.147C1779.88,1491.168,1780.711,1490.475,1781.542,1489.575Z" transform="translate(-1697.425 -1424.937)" fill="#e3e4e5" stroke="#fff" stroke-linecap="round" stroke-linejoin="round" stroke-width="4"/>
          <path id="패스_24069" data-name="패스 24069" d="M1732.7,1494.789c-1.385-.069-1.247.623-4.224.623-3.532.07-2.978,2.286-2.978,2.286,2.008,3.186,4.294,2.978,7.272,2.7,2.147-.277,2.078-1.524,2.355-3.186C1735.193,1496.451,1734.569,1495.135,1732.7,1494.789Z" transform="translate(-1665.273 -1430.011)" fill="#e3e4e5" stroke="#fff" stroke-linecap="round" stroke-linejoin="round" stroke-width="4"/>
          <path id="패스_24070" data-name="패스 24070" d="M1718.02,1517.709a3.252,3.252,0,0,0,.831,3.255c.539,1.081,1.063,2.041,1.939,2.008a3.732,3.732,0,0,0,1.385-3.948C1721.759,1518.817,1720.166,1517.224,1718.02,1517.709Z" transform="translate(-1660.635 -1443.929)" fill="#e3e4e5" stroke="#fff" stroke-linecap="round" stroke-linejoin="round" stroke-width="4"/>
          <path id="패스_24071" data-name="패스 24071" d="M1684.308,1517.439a3.413,3.413,0,0,0-3.809,2.77c.693,2.7,2.978,1.454,4.709.069C1686.663,1519.378,1685.9,1518.27,1684.308,1517.439Z" transform="translate(-1637.866 -1443.797)" fill="#e3e4e5" stroke="#fff" stroke-linecap="round" stroke-linejoin="round" stroke-width="4"/>
          <path id="패스_24072" data-name="패스 24072" d="M1667.225,1519.98c-1.87.693-1.246,4.917-1.246,4.917,2.147,4.155,3.532,2.839,4.363.969.831-1.385.208-2.493-.485-4.5C1669.649,1520.672,1668.957,1520.049,1667.225,1519.98Z" transform="translate(-1628.955 -1445.368)" fill="#e3e4e5" stroke="#fff" stroke-linecap="round" stroke-linejoin="round" stroke-width="4"/>
          <path id="패스_24073" data-name="패스 24073" d="M1646.334,1553.321c-2.493.139-3.255,3.186-3.255,3.186,2.839.416,3.948.346,5.333-1.246C1649.728,1554.429,1648.273,1553.806,1646.334,1553.321Z" transform="translate(-1615.059 -1465.689)" fill="#e3e4e5" stroke="#fff" stroke-linecap="round" stroke-linejoin="round" stroke-width="4"/>
          <path id="패스_24074" data-name="패스 24074" d="M1575.8,1524.246c0-1.108-2.147-1.87-2.632-1.247-2.77,1.177-1.593,2.563-1.593,2.563a8.67,8.67,0,0,0,2.77,2.355c1.87.9,2.908.762,3.67-.9C1578.293,1525.424,1576.284,1525.493,1575.8,1524.246Z" transform="translate(-1571.327 -1447.072)" fill="#e3e4e5" stroke="#fff" stroke-linecap="round" stroke-linejoin="round" stroke-width="4"/>
          <path id="패스_24075" data-name="패스 24075" d="M1601.109,1490.861c.069-2.078-1.177-2.493-3.255-3.879-1.939-2.285-2.909-1.523-3.67-.415.208,4.017-.762,2.7-1.524,3.948,0,1.177.9,2.563.415,4.017-1.87-1.385-2.424-3.532-4.709-3.186-2.563,1.385,2.355,6.026,2.355,6.026,1.316,3.394,2.978,2.285,5.887-.485C1602.771,1492.108,1600.693,1493.77,1601.109,1490.861Z" transform="translate(-1581.261 -1424.353)" fill="#e3e4e5" stroke="#fff" stroke-linecap="round" stroke-linejoin="round" stroke-width="4"/>
          <path id="패스_24076" data-name="패스 24076" d="M1601.031,1390.627a3.912,3.912,0,0,0-.554,3.255s.346,1.524.762,1.455c1.039,1.662,1.039,1.108,2.078-.416.069-1.662-.277-1.939-.969-3.878C1602.139,1388.965,1601.031,1389.311,1601.031,1390.627Z" transform="translate(-1589.009 -1365.88)" fill="#e3e4e5" stroke="#fff" stroke-linecap="round" stroke-linejoin="round" stroke-width="4"/>
          <path id="패스_24077" data-name="패스 24077" d="M1674.377,1335.657c-2.263,0-2.908,1.477-3.74,2.54-1.662.324-3.231.416-4.108-.37a5.794,5.794,0,0,1-3.232-.6c-2.448.046-6.6.23-7.664-.139-1.8-.23-1.755-.508-1.755-1.523-.093-1.292-.416-2.355-.646-4.341a1.653,1.653,0,0,0-2.4-1.477c-1.847,1.432-1.062,2.908-2.4,3.646-1.8.139-2.216-.23-2.864-1.985-1.432-1.754-2.261-2.4-4.062-2.493-3.74,0-3.74.139-4.432.554-2.356-.045-2.678,1.8-4.155,5.4a7.013,7.013,0,0,1-3.97,4.109c-3.278-.185-2.864.646-4.249.416-1.05-.6-1.308-2.237-1.368-2.829,0,0-1.746-3.72-3.541-2.93l.061.01a24.669,24.669,0,0,0-1.524,4.5c-1.8.623-2.7-.139-2.632.554.069,3.394,0,3.186-2.008,5.056-2.839,2.147-3.185,2.424-2.077,3.671,2.216,2.147,3.186,1.593,4.64,1.177,1.316-.762,1.385.277.138,1.454s-.831,1.385-.346,2.285,3.047,1.87,3.047,3.879c-1.108,2.424-1.246,2.909-2.839,3.186-1.385.831-2.078-1.8-2.632-5.333,0-3.6-.485-2.632-3.463-.9-2.7,2.008-.969,2.424,2.493,5.679,4.086,2.839,3.394,3.74,2.355,5.679-.07,1.593,1.662,3.67,1.731,5.61-.554,2.008-1.731,1.316-2.632-1.385-.97-1.939-1.246-3.948-2.7-3.186-1.939,2.424-2.77,4.986-2.285,6.51,3.255,1.731,4.432,3.047,6.579,2.7,1.8-.97,4.086-.208,5.679.069,2.632-.139,2.493-1.385,2.008-2.632-.208-2.77.485-2.078,1.593-3.74.97-1.177,2.77-1.939,2.355-.416.138,5.056-.624,5.956,1.454,6.372,1.385.831,3.117,1.247,2.424,2.147-1.8.07-4.571.346-4.917-.277-2.7-.139-2.562-.693-3.463.762,0,2.077.139,2.493-1.524,2.355-.9-.624-3.394-.831-5.817-.416-1.593,1.039,2.424,1.524,5.61,1.939,2.632,2.286,5.264,3.463,5.817,4.986-4.571.554-3.463-.138-5.956-1.108-1.177-.623-2.7-2.008-4.017-1.593-1.039,1.662,1.455,2.77,2.77,3.878,1.247,2.978-.969,2.7-2.562,1.8-1.385-1.039-2.077-2.7-3.047-3.324-.208-1.524.139-2.078-.485-3.74-1.247-1.524-.693-2.7-2.424-2.493-1.87.554-1.177,5.679-.97,8.1.485,2.493,1.177,2.77,2.493,2.978a13.334,13.334,0,0,1,3.948.554c3.242.782-.123,3.479,3.394,2.424.831-.762,2.632-2.562,3.463-2.493.693.693,1.177,1.247-1.177,2.77-2.424,2.008-2.216,2.632-2.354,6.095-1.87,2.632.9,2.147.554,4.086-1.177,1.523-.623,2.216.97,3.394a7.355,7.355,0,0,0,4.64,2.77c1.246,0,1.523-.138,1.662-2.77,0-2.217.9-2.217,1.593-3.324.762-3.255,1.039-2.286,4.5-2.424,1.454,0,1.939.277,2.078-1.731.069-1.662,1.108-3.394,2.078-4.917.692-.97,2.285-.762,2.077.623-.277,1.385-.416,3.048.277,3.671.208,2.563,1.316,1.939,6.649,1.87,1.385.277,2.008-.831,1.87-2.562,0-1.523-.831-2.216-.346-2.978,1.732-1.108,1.385-1.731,1.385-3.393.554-1.8-1.662-1.8-1.87-3.116.693-1.593,1.524-1.8,4.017-1.8s3.463-2.84,4.363-4.64c1.247-1.731,2.7-1.385,4.017-1.523,1.247-.485.831-3.324,1.247-4.917,1.454-1.593,4.017.208,5.679,1.247,1.732,1.87.762,3.186.07,4.294-.554,1.731-1.731,2.147-1.87,1.177.208-.762-.277-1.247-1.246-1.731-1.939.069-1.662,1.8-1.108,2.77.554,2.7-.554,2.839-2.008,2.7-1.8-1.177-1.593-1.177-2.632-.485a3.822,3.822,0,0,0,.346,4.986c.277.831,2.147,1.108,2.078-.208.07-.97,1.593-1.662,1.593-1.662a4.37,4.37,0,0,1,2.286,2.632c.416.485.9.346,1.8,1.731,1.454,2.285,3.186.554,7.41-2.7,1.454-1.039,1.039-1.454.139-1.385-.9-.208-1.316-.97-2.216-2.008.138-1.662.969-1.593,2.424-1.524,1.662.623,1.523,1.316,3.186,1.108,2.077-1.454,2.147-2.7,2.216-5.4-.069-2.147-1.662-3.255-4.225-3.324-2.078-.208-3.186-1.039-3.6-2.563-.277-2.77.554-2.562,1.939-2.839,2.009.138,2.286-.554,2.078-2.355,1.316-2.216,2.355.762,4.294,4.156a12.744,12.744,0,0,1,1.039,4.5c.208,1.939,0,2.424,1.108,3.532a4.314,4.314,0,0,0,3.394-.692,17.759,17.759,0,0,0-.138-5.056c.277-.623.554-.277.969-1.662.416-.554,1.177-.831,1.524-.069,1.039.554,1.87,0,2.009.762,1.8.485,1.177-.485,1.316-1.454,1.108.485.416-2.7.623-3.809,1.108-1.108.346-1.385-1.732-1.316-1.8-.277-2.7.485-3.948,1.731-1.247,1.87-1.523,1.454-2.424,1.454-1.247,1.039-2.147-1.039-2.839-2.909-.139-1.455-.693-3.532.208-5.54a1.462,1.462,0,0,1,2.563-.346c1.108,1.454,1.731,1.662,2.839,1.108a4.133,4.133,0,0,1,3.394-2.493,12.3,12.3,0,0,1,2.968-1.214,27.042,27.042,0,0,0-3.868-8.551c-.623-1.177-3.117-2.77-4.848-4.086-1.108-.762-1.316-1.732-1.523-4.294-.139-2.078-.9-5.679-1.108-7.48.105-.111.2-.219.288-.329-.849-.135-2.114-.328-2.781-.386A16.269,16.269,0,0,0,1674.377,1335.657Z" transform="translate(-1594.185 -1328.917)" fill="#e3e4e5" stroke="#fff" stroke-linecap="round" stroke-linejoin="round" stroke-width="4"/>
          <path id="패스_24078" data-name="패스 24078" d="M1586.835,1385.619c-1.662,1.108-.831,4.363-.831,4.363,1.108,1.246,5.61-4.432,5.61-4.432C1592.168,1383.679,1588.913,1384.788,1586.835,1385.619Z" transform="translate(-1580.145 -1362.811)" fill="#e3e4e5" stroke="#fff" stroke-linecap="round" stroke-linejoin="round" stroke-width="4"/>
        </g>
        <g id="그룹_3716" data-name="그룹 3716" transform="translate(87.718 182.067)">
          <path id="패스_24079" data-name="패스 24079" d="M1940.273,1412.066c-1.316-.277-1.939.762-2.7.208-1.108-.693.831-1.593,1.939-2.424,1.039-1.039.762-.762,0-1.662-.139-2.354.554-3.74-.416-4.779-1.939-2.355-1.316.9-1.662,2.424-.138.831-2.216,1.87-3.463,1.8-1.454,1.108-.9,2.7,0,2.908a5.6,5.6,0,0,1,.139,2.008c-.346.693-.485-.9-2.77-1.939-1.316-.069-2.147-1.108-3.117.138a3.188,3.188,0,0,0,.416,4.433c1.316,1.039,2.909,0,4.086-.831,1.316-.277,1.039,1.177.069,2.216-1.177,1.593.485,3.463,1.593,5.4s1.246-1.593,1.316-3.809c.415-1.593.623-2.078,1.939-2.217,1.039.07,1.455,1.039,2.77,1.177,1.385-.831-.554-2.216-.761-3.186C1940,1413.174,1940.9,1412.551,1940.273,1412.066Z" transform="translate(-1876.142 -1345.662)" fill="#e3e4e5" stroke="#fff" stroke-linecap="round" stroke-linejoin="round" stroke-width="4"/>
          <path id="패스_24080" data-name="패스 24080" d="M1840.159,1425.969a1.755,1.755,0,0,0-2.008,1.8c-.485.692-1.454.138-1.454.138.554-1.731-1.108-3.67-1.108-3.67a5.542,5.542,0,0,1-.485-1.939,2.343,2.343,0,0,0,.623-2.493,3.666,3.666,0,0,0-2.839-1.8c-2.493.139-2.493,3.255-2.493,3.255a9.135,9.135,0,0,0-.208,4.709c.139,2.493,1.454,3.324,1.454,3.324,1.316,1.731.762,2.562.762,2.562,1.039,2.147,1.662,1.8,1.939,1.8,2.079,0,2.147-1.454,2.147-1.454,1.385-2.147,2.216-.969,2.216-.969,1.732,2.563,3.394,1.939,3.394,1.939,2.008-1.593,1.8-4.363,1.87-4.64C1844.455,1426.581,1840.159,1425.969,1840.159,1425.969Z" transform="translate(-1816.681 -1355.062)" fill="#e3e4e5" stroke="#fff" stroke-linecap="round" stroke-linejoin="round" stroke-width="4"/>
          <path id="패스_24081" data-name="패스 24081" d="M1850.712,1430.425a10.617,10.617,0,0,0,2.216.346c1.731.554,2.216-1.593,2.216-1.593.554-1.87-3.047-1.939-3.047-1.939-3.047-.554-3.117,1.246-3.117,1.246A1.715,1.715,0,0,0,1850.712,1430.425Z" transform="translate(-1828.272 -1360.626)" fill="#e3e4e5" stroke="#fff" stroke-linecap="round" stroke-linejoin="round" stroke-width="4"/>
          <path id="패스_24082" data-name="패스 24082" d="M1796.241,1292.567c-.093.109-.183.218-.288.329.208,1.8.97,5.4,1.108,7.48.208,2.562.416,3.532,1.523,4.294,1.731,1.316,4.225,2.908,4.848,4.086a27.037,27.037,0,0,1,3.868,8.551,3.488,3.488,0,0,1,2.018.037c.831.277.415,1.385,1.731.831,1.039-.208.139-1.177,1.316-2.216,1.454-.97,2.563-.97,3.324.97.554.623.762,2.216,2.147,1.385,1.108-1.039.831-1.247-.139-2.285-1.316-.9-.554-2.355.485-3.324,2.147-2.286,2.7-1.939,2.424-.831,0,3.878-.623,2.839-.692,5.817-.346,2.978.485,3.047,1.523,3.74,3.393.139,2.7.762,2.7.762,1.108,2.908,2.424,2.008,4.432,2.354,1.593.693,5.194.416,6.095.277.831-.485.208-3.186-.346-5.056-.554-1.385-.069-1.593.554-.831.346,2.493,1.939,3.463,3.047,5.194.831,2.424.9,2.909,1.87,3.463.692,0,2.909.485,4.017-.139,2.285-1.246.831-1.731,0-2.839a1.611,1.611,0,0,1-.139-2.286,4.66,4.66,0,0,0,.623-3.74c-1.108-.624-1.039-.416-1.177-1.731.069-1.247.9-.485,2.008-1.108,1.108-.069,1.731-.97.97-2.77-.416-1.87.97-2.147,2.147-1.523,2.424,1.108,1.039,2.285,2.632,2.147.831,1.039,2.286-.692,1.039-1.662-.693-1.039-.416-2.562-.416-4.709a3.329,3.329,0,0,1,1.316-2.493c.97.831.485,1.87,1.593,3.047.623,0,1.385-1.385,2.77-.97.693,1.455-1.108,2.493-1.039,3.6.97,1.316,1.8,1.8,4.848,1.87,2.632.208,2.563-.9,3.809-1.732,1.177-.554,2.909-.139,3.324.831,1.385.139,1.593-1.108,2.493-2.632,1.8-.762,1.454.623,2.008,3.532,1.108,2.978,2.77-1.732,3.394-3.255.554-.277,1.593-.969,2.216.139.416.346.208.831,1.039-.069.485-.416,0-1.385-.069-1.939,1.246-.831,0-1.177,1.662-1.108,1.177,0,.416.624,1.87.485,1.939-.139,1.87-.9,3.6-2.839,1.662-2.008,2.009-2.355,1.87-3.809-1.108-.9-.416-.831-.554-2.286,0-.9-.138-2.147.623-2.563,1.732-.554,1.316-.831,2.978-2.909a45.631,45.631,0,0,1,1.316-5.748,14.753,14.753,0,0,0,.554-5.4c-.069-.554-.623-.415-.623-1.87.277-1.246,1.177-1.454,2.285-1.177,1.316-.069,1.939-1.731,1.662-4.363-.189-1.7.33-2.6.547-4.4a29.208,29.208,0,0,1-3.156.059c-2.308-.462-3.094.738-4.063,1.384-1.846.184-2.216.093-2.955-.369a7.351,7.351,0,0,0-4.2-1.986c-2.355-.877-3.555-.277-5.125.878-1.247,1.293-3.785,3.324-5.541,4.94-2.4.277-2.4-.554-3.463-.738a2.817,2.817,0,0,0-2.632-.6,10.146,10.146,0,0,1-3.093,2.263c-1.061.647-1.662.323-2.4,1.154a3.763,3.763,0,0,0-2.77.554c-1.154.045-4.663.277-5.4-.23-.554-.739-1.709-1.247-3.879-2.124a15.093,15.093,0,0,0-3.832-1.43c-6-.232-5.218.369-6.464.323-2.725,0-1.708.692-4.248.739-1.385-.047-2.447.508-5.494.6-2.632.093-2.31-1.246-1.524-3.833a2.427,2.427,0,0,0-.462-3.463c-.923-.97-3-1.8-6.233-2.909a28.1,28.1,0,0,1-5.469-3.072,33.255,33.255,0,0,1-4.971-4.488c-1.136,2.415-2.227,4.659-5.938,5.8a17.838,17.838,0,0,0-3.983,2.775,13.511,13.511,0,0,0-1.939,6.718c-.762,2.078-1.524,3.463-1.593,4.848.069,2.493,1.385,3.74,2.147,5.4.9,1.939,1.87,3.74.762,5.541-1.4,2.23-1.758,3.406-2.828,4.658" transform="translate(-1795.953 -1256.825)" fill="#e3e4e5" stroke="#fff" stroke-linecap="round" stroke-linejoin="round" stroke-width="4"/>
        </g>
        <g id="그룹_3717" data-name="그룹 3717" transform="translate(9.504 103.356)">
          <path id="패스_24083" data-name="패스 24083" d="M1625.027,1147.995a5.407,5.407,0,0,0-.9-2.078c-.346-.416.208-.831-.762-2.078-.831-.554-.554-1.662-1.454-2.354-.624-.624.069-1.663-1.039-1.939-2.008-.693-1.247,1.662-1.247,1.662.762.277-.277,1.87.554,2.424s-.831,1.177.346,2.217-.416,1.523.554,2.493-.277,2.147.762,2.978a1.7,1.7,0,0,0,2.008,1.316c.346-.069,1.8-.208,1.524-1.662A4.488,4.488,0,0,0,1625.027,1147.995Z" transform="translate(-1610.181 -1106.555)" fill="#e3e4e5" stroke="#fff" stroke-linecap="round" stroke-linejoin="round" stroke-width="4"/>
          <path id="패스_24084" data-name="패스 24084" d="M1673.943,1121.665l.028-.029c-.831-1.385-1.569-5.633-1.569-8.588-.369-1.385-2.033-1.293-3.141-2.493a12.908,12.908,0,0,1,.37-5.909c2.955-5.263,1.292-5.634-.185-7.019-2.585-1.293-3.693-1.292-5.818-3.508-1.385-1.569-2.493-6.926-3.047-10.158a14.876,14.876,0,0,1,2.77-7.572c.923-1.662.277-4.432-.369-6.095-2.308-1.108-2.309-2.586-2.309-2.586a5.783,5.783,0,0,1-1.382-3.594c-1.59-.913-2.433-2.8-5.428-2.766-2.667,0-5.783-.312-7.133.485-1.351.45-4.814,1.593-6.129,1.835,0,0-.67-.013-1.327-.066a3.7,3.7,0,0,1-1.2,1.382c-1.039,1.177-2.355.692-3.394.9a4.348,4.348,0,0,0-1.524,4.433c-.692,1.177-1.247.692-1.8-2.632.069-2.147-2.009-3.047-3.117-5.61-1.108-1.662-1.177-2.493-3.116-2.355-1.385,0-1.8.07-3.809,4.017-.762,1.731-1.524,1.246-2.008-2.355-1.731-2.632-1.524-4.571-3.809-6.095-1.593-.346-.761,2.978,0,5.194.346,1.108.97,2.078-.208,2.008-2.216-.208-2.147.416-2.078,3.117-.208,1.108-.831,1.593-1.316-.277-.9-2.078-.831-4.225-1.939-5.956-.416-.624-3.048-.485-3.6,2.008a5.4,5.4,0,0,0,2.563,5.333c.9.969.208,1.939-2.008,3.878-1.662,1.108-2.493,1.731-3.254-1.108-.139-2.354.831-2.008.623-4.571-.277-2.078-2.77-.208-3.393,1.662-.831,1.385-.07,3.186-2.078,5.125-3.463,1.8-3.117,4.017-3.117,4.017a2.72,2.72,0,0,0,1.87,2.77s1.8.623,1.316,2.216c-.277.762-1.454.97-.761,1.732a2.065,2.065,0,0,0,2.978,0c.692-.554,2.008-1.108,2.008.623,0,1.177-.139,4.5,1.523,3.74,2.563-3.255.554-3.463,1.385-4.709.416-.762.692-2.009,1.939-.831,1.455,1.523.485,2.285,1.87,2.424,1.177-.139,1.177-1.8,3.186-2.078.762-.277,2.008-1.039,2.355.693-.069,2.563.554,3.324-1.939,3.948-2.147,1.8-1.8,1.939-.9,3.67a10.343,10.343,0,0,0,1.316,6.787c1.039,3.047,2.147,3.948.97,4.848-.97.97-2.216,3.186.139,4.225,1.108.692,2.562,1.87.692,3.532-.97.623-2.147,2.355-.208,3.047,1.662,1.247,1.316,2.424,2.909,2.147.416-.069,1.523-.069.831.97-2.078,1.939-2.009.138-5.264,2.493-2.563,1.455,0,2.355,2.493,2.216,1.316-.138,1.662.831,2.424.831.693-.139.485-.623,2.424-.346,1.385-.485,1.108,1.454.277,2.424,1.246,2.078,2.216,2.493,6.648,2.562,3.047-.069,4.224-2.632,6.095-3.74.305-.349.617-.436.839-.286a13.024,13.024,0,0,1,4.424-2.207c1.477,0,2.308,1.2,3.97,1.2,1.553.791,1.939,1.662,2.586,3.324a6.778,6.778,0,0,0,3.97-.646,15.186,15.186,0,0,1,5.541-1.939,5.988,5.988,0,0,1,3.878-1.016c1.662,1.754,1.939,2.032,2.124,4.155.646,2.585,2.123,2.309,3.324,2.863a11.331,11.331,0,0,0,2.031-.739,3.125,3.125,0,0,1,2.031-2.124c3.387,0,3.871-1.723,4.959-2.833" transform="translate(-1595.664 -1055.263)" fill="#e3e4e5" stroke="#fff" stroke-linecap="round" stroke-linejoin="round" stroke-width="4"/>
        </g>
        <path id="패스_24085" data-name="패스 24085" d="M1781.575,800.709a11.869,11.869,0,0,1-6.048,6.048,16.891,16.891,0,0,1-8.911,2.725c-1.432,0-3.97-.786-6.463-1.246-2.632,0-3.833.461-4.756-.831-1.754-1.108-6.787-.508-8.635-.093-1.478.369-6.555-.045-10.342.232a29.541,29.541,0,0,0-8.4,1.154,42.855,42.855,0,0,0-9.235,1.894c-1.795.459-5.269,3.545-6.87,5.143,2.24-.61,8.13-2.008,8.671.018a5.716,5.716,0,0,1,.554,3.471c.047,1.34.231,1.893,2.4,1.662,1.754,0,4.156-1.339,5.956-.184,1.432.323,3.186.092,4.017,2.262a33.7,33.7,0,0,1,.415,5.817c-.046.786.553,1.016,5.078.924.647.045.831.138.969,3,.37,1.892,1.34,2.17,2.679,3.278.23,1.155,1.015,4.111.507,6.373-.923,2.078-3.186,7.063-3.555,8.495-.923,2.263-2.4,3.786,0,4.617.923.831,1.94,1.34,5.864,1.986a13.727,13.727,0,0,0,5.771.415c1.2.554,4.663,1.339,2.308,2.862-1.246.415-2.77.968-2.632,2.862a12.134,12.134,0,0,1,1.894,3.971,11.943,11.943,0,0,1-.693,5.356,9.458,9.458,0,0,0-.97,5.217,18.138,18.138,0,0,1,.834,5.045c.535.829,1.731,2.481,2.768,2.481h5.494c1.339-.277,2.031-.461,2.447-3,.554-3,.786-4.431,2.171-4.247,1.247.045,1.57.876,2.909,2.261.876,1.524,2.077,3,3.37,3.139a41.321,41.321,0,0,1,6.787-.323c1.617-.508,2.816-.786,7.757-.739,1.709.739,1.939,1.338,1.385,2.077-.784,1.155-.969,1.8.878,2.585a23.857,23.857,0,0,1,6.649,2.355,30.675,30.675,0,0,1,4.122,3.019c.192-.159.384-.314.569-.45-.186.135-.377.291-.569.45l.033.028c2.077.046,3.416-.091,4.571.647a2.416,2.416,0,0,0,3.232-.277,4.341,4.341,0,0,1,4.063-.877c1.432.046,3.186.693,4.432-.785.924-1.57,1.569-1.57,6.787-1.432a2.851,2.851,0,0,1,3.6.092c1.016,1.246,1.339,1.939,4.987,1.432.831-.831,1.108-2.263,2.355-2.955,1.939-1.338,4.271-3.139,7.041-3.693.139-2.424-1.8-6.51-3.532-9.973-1.87-3.255-3.186-4.917-4.5-8.588-.346-3.116-2.909-5.748-4.363-7.964-1.87-1.662-1.524-3.463-2.147-6.372-.484-2.493-3.116-2.839-6.164-5.125-3.255-2.008-6.164-4.225-7.549-6.648-1.939-3.186-3.116-3.67-4.709-5.61-.97-2.147-1.177-3.463-2.563-7.688-1.731-4.225-2.7-3.74-4.294-6.164-3.948-6.926-3.67-8.241-4.848-10.873-.485-1.87-3.186-6.233-3.393-7.757a3.37,3.37,0,0,0,.692-3.324,17.142,17.142,0,0,1-3.394-4.017c-.9-3.648-.764-3.193-1.511-4.275a6.89,6.89,0,0,0-1.952.882C1784.484,792.075,1783.053,797.015,1781.575,800.709Z" transform="translate(-1657.013 -790.593)" fill="#e3e4e5" stroke="#fff" stroke-linecap="round" stroke-linejoin="round" stroke-width="4"/>
        <path id="패스_24086" data-name="패스 24086" d="M1772.493,1030.88c-1.385,2.355-2.54,3.232-3.094,1.432-.6-.785-.738-1.385-3.278.416-2.632,1.846-7.62,5.079-7.388,7.2-.048-.025-.089-.059-.135-.086a5.782,5.782,0,0,0,1.382,3.594s0,1.478,2.309,2.586c.646,1.662,1.292,4.433.369,6.095a14.873,14.873,0,0,0-2.77,7.571c.554,3.232,1.662,8.589,3.047,10.158,2.125,2.216,3.233,2.215,5.818,3.508,1.477,1.385,3.14,1.755.185,7.019a12.906,12.906,0,0,0-.37,5.909c1.108,1.2,2.771,1.108,3.141,2.493,0,2.955.738,7.2,1.569,8.588l-.028.029a56.915,56.915,0,0,0,6.861.709,4.734,4.734,0,0,1,4.117,1.7l0,0,0,0c.13.146.258.3.385.473a10.3,10.3,0,0,0,5.194-1.246c1.454-2.078,2.7-4.294,5.194-4.363,1.939.07,2.77.346,2.355-2.7-.623-3.047-.97-5.264-4.155-5.679-2.562-1.039-3.6-1.385-3.048-7.757.485-1.039.416-3.324.624-5.4.623-2.009.9-4.017-1.177-6.026-1.177-2.077-.693-2.978.554-3.809,2.009-.693,2.632-1.316,2.355-4.086-.692-2.216-.138-4.017,2.078-3.948,1.108.831,3.324,1.8,4.294.415.208-1.662.831-3.117.623-4.709,1.039-1.385,2.563-1.385,3.948-1.316,4.848-.208,3.324-.97,5.61-.97,0,0,1.87-.346,2.008,1.87a2.789,2.789,0,0,0,2.078.416c.623-.692.9-1.177,1.87-1.454,1.385-1.108,2.285-1.454,2.216-3.186-.139-2.978-.416-3.948,1.593-6.51,1.039-1.316,1.8-2.839,3.255-4.709a53.108,53.108,0,0,1,5.092-5.269,30.662,30.662,0,0,0-4.122-3.019,23.855,23.855,0,0,0-6.649-2.355c-1.847-.786-1.662-1.43-.877-2.585.554-.739.324-1.339-1.385-2.078-4.941-.047-6.14.23-7.757.739a41.318,41.318,0,0,0-6.787.323c-1.293-.139-2.493-1.616-3.37-3.139-1.339-1.385-1.662-2.216-2.909-2.261-1.385-.184-1.617,1.245-2.171,4.247-.415,2.54-1.108,2.724-2.447,3H1783.2c-1.036,0-2.232-1.651-2.767-2.481,0,.039,0,.091,0,.126C1779.465,1021.739,1773.832,1028.941,1772.493,1030.88Z" transform="translate(-1685.467 -927.638)" fill="#e3e4e5" stroke="#fff" stroke-linecap="round" stroke-linejoin="round" stroke-width="4"/>
        <g id="그룹_3718" data-name="그룹 3718" transform="translate(13.338 24.1)">
          <path id="패스_24087" data-name="패스 24087" d="M1641.895,990.793s.762,1.316,1.385,1.316c.623-.069.623.346,1.732-1.454,1.108-1.385.9-2.563.208-3.394-1.593-1.732-1.247-1.177-2.562-.139C1641.133,987.815,1641.895,990.793,1641.895,990.793Z" transform="translate(-1627.559 -933.882)" fill="#e3e4e5" stroke="#fff" stroke-linecap="round" stroke-linejoin="round" stroke-width="4"/>
          <path id="패스_24088" data-name="패스 24088" d="M1608.114,925.59c-2.008-.485-2.632,2.078-2.632,2.078.208,1.454.969,1.316,2.7.069C1609.984,926.767,1609.36,925.659,1608.114,925.59Z" transform="translate(-1605.482 -896.936)" fill="#e3e4e5" stroke="#fff" stroke-linecap="round" stroke-linejoin="round" stroke-width="4"/>
          <path id="패스_24089" data-name="패스 24089" d="M1612.576,936.19c1.316,3.67,1.177,4.294,2.908,5.332,1.108.416.969-1.385.554-3.116a6.469,6.469,0,0,1-1.593-3.463C1612.576,932.38,1612.576,936.19,1612.576,936.19Z" transform="translate(-1609.806 -902.133)" fill="#e3e4e5" stroke="#fff" stroke-linecap="round" stroke-linejoin="round" stroke-width="4"/>
          <path id="패스_24090" data-name="패스 24090" d="M1628.167,925.587a2.618,2.618,0,0,0-3.879-.762c-1.385.554-1.108,5.056-1.108,5.056.831,2.562.97,2.216.762,3.67,1.454,2.355,1.87,2.008,4.224,2.008a2.44,2.44,0,0,0,2.424-2.355c.831-1.108.346-1.593-.069-2.354C1630.66,928.427,1629.414,927.6,1628.167,925.587Z" transform="translate(-1616.255 -896.171)" fill="#e3e4e5" stroke="#fff" stroke-linecap="round" stroke-linejoin="round" stroke-width="4"/>
          <path id="패스_24091" data-name="패스 24091" d="M1676.521,938.133c1.35-.8,4.467-.485,7.133-.485,2.994-.034,3.837,1.853,5.427,2.766-.012-.2-.012-.331-.012-.331s0,.133.012.331c.047.027.088.061.135.086-.231-2.123,4.756-5.357,7.388-7.2,2.54-1.8,2.678-1.2,3.278-.416.554,1.8,1.709.923,3.094-1.432,1.338-1.939,6.972-9.142,7.941-10.527,0-.035,0-.087,0-.126-.179-.278-.285-.464-.285-.464s.105.186.285.464a18.138,18.138,0,0,0-.834-5.045,9.458,9.458,0,0,1,.97-5.217,11.943,11.943,0,0,0,.693-5.355,12.133,12.133,0,0,0-1.894-3.971c-.138-1.894,1.385-2.447,2.632-2.862,2.355-1.524-1.108-2.308-2.308-2.862a13.726,13.726,0,0,1-5.771-.416c-3.924-.646-4.941-1.155-5.864-1.986-2.4-.831-.923-2.355,0-4.617.369-1.432,2.632-6.417,3.555-8.495.508-2.261-.277-5.218-.507-6.373-1.339-1.108-2.308-1.385-2.679-3.278-.139-2.862-.323-2.955-.969-3-4.525.092-5.125-.139-5.078-.924a33.7,33.7,0,0,0-.415-5.817c-.832-2.17-2.585-1.939-4.017-2.262-1.8-1.154-4.2.184-5.956.184-2.17.23-2.354-.323-2.4-1.662a5.715,5.715,0,0,0-.554-3.471c-.54-2.026-6.43-.629-8.671-.018l-.019.018c-.578.578-.729,1.255-1.422,3.194-.54,2.542-1.463,3.451-1.757,3.687.2.2.409.4.613.576-.2-.18-.408-.378-.613-.576-.059.047-.1.077-.1.077a9.367,9.367,0,0,1-2.389,2.978c-1.269,1.269-5.818,3.647-7.663,4.524-1.108,1.479-3.9,2.193-6.119,3.97-1.2,2.638-.48,6.99-.05,8.989.018-.009.031-.023.05-.031,1.731.762,1.385,4.779,2.839,6.787a7.188,7.188,0,0,0,4.848,4.5c2.216,1.246,1.108,1.87-.554,1.8-2.286.069-3.6-1.385-5.679-3.393-.9-1.316-1.454-3.809-2.147-5.333-.485-1.039-2.77-.623-5.333.554-1.593.97-.554,1.524.623,4.5.208,3.393,1.8,4.086,1.8,4.086,3.74,3.186,3.186,3.74,4.224,6.026,1.316,1.87,1.316,2.978.139,3.878-1.247.9-1.732.139-2.563,1.593-.208,1.87,1.039,2.839,2.632,3.255,1.385.07,2.632-1.662,4.017-3.186.693-.623,2.217-.623,3.394.9.554,1.039,1.316,2.216-.969,2.147-2.7.138-1.939,3.116-.97,4.917.069,1.87,1.454,1.385,2.978.485,1.662-.623,2.424-.139,2.7,1.385-.069.9,1.039,1.662-1.039,1.524-2.7.138-3.394,1.593-3.394,3.186-2.147.208-1.731-.07-2.285-.554-1.385.139-.97-.069-2.009-.346-1.108,0-1.385-.346-1.247,3.463-.138,2.84-.97.97-1.108,3.255-.138,2.839.208,2.77,1.454,2.632a24.292,24.292,0,0,0,4.294-3.878c2.632-.693,2.078-.346,3.117-.069,2.147,0,1.731,1.455.069,1.662-1.385,1.039-3.671,1.039-3.948,2.77-.97,1.662-.623,3.394.138,3.947,2.355.069,2.008-.138,2.424-.554,2.7,0,1.87-.139,2.632-.554,2.147-.139,2.978-.208,2.77.9-.346,1.455-1.247,1.524-4.433,1.385-1.454.139-1.662,1.039-.554,3.255,2.008,3.047,2.285,2.909,3.878,2.909,1.663,0,1.663-1.039,3.255-2.355.692-.623,1.8-1.731,2.216-.554-.306.829-.2,1.494-.531,2.219.657.053,1.327.066,1.327.066C1671.708,939.726,1675.171,938.584,1676.521,938.133ZM1666.167,904.2a11.578,11.578,0,0,0-.97-2.562c-.415-1.281-.9-1.835-2.84-2.909-1.039-1.143-1.558-1.731-.727-3.774,0,0,.416-3.117,2.632-3.255,1.87-.035,2.112-1.108,2.909-1.212,1.316-.658,1.454-1.385,3.394-1.385,1.316.312,2.978.277,4.017.9.727.762,1.731.866,2.25,1.628.97.623,1.143,1.627,1.073,3.255-.035,2.008-.52,3.047,1.212,2.909,1.316.173,1.835.139,1.593,1.662a5.606,5.606,0,0,1-1.039,3.567c-1.281,1.108-2.147,1.523-4.675,1.87-2.493.208-3.359.762-4.606.727C1668.106,905.618,1667.657,904.995,1666.167,904.2Z" transform="translate(-1629.289 -852.308)" fill="#e3e4e5" stroke="#fff" stroke-linecap="round" stroke-linejoin="round" stroke-width="4"/>
        </g>
        <path id="패스_24092" data-name="패스 24092" d="M1701.026,962.314c2.528-.346,3.394-.762,4.675-1.87a5.606,5.606,0,0,0,1.039-3.567c.243-1.523-.277-1.489-1.593-1.662-1.732.139-1.247-.9-1.212-2.909.07-1.628-.1-2.632-1.073-3.255-.52-.762-1.523-.866-2.25-1.628-1.039-.623-2.7-.588-4.017-.9-1.939,0-2.078.727-3.394,1.385-.8.1-1.039,1.177-2.909,1.212-2.216.139-2.632,3.255-2.632,3.255-.831,2.043-.312,2.632.727,3.774,1.939,1.073,2.424,1.628,2.84,2.909a11.578,11.578,0,0,1,.97,2.563c1.489.8,1.939,1.419,4.225,1.419C1697.667,963.076,1698.532,962.522,1701.026,962.314Z" transform="translate(-1641.979 -885.632)" fill="#e3e4e5" stroke="#fff" stroke-linecap="round" stroke-linejoin="round" stroke-width="4"/>
      </g>
    </g>
    <g id="그룹_3721" data-name="그룹 3721" transform="translate(232.695 2188.399)">
      <path id="패스_24093" data-name="패스 24093" d="M252.925,559.846a10.347,10.347,0,1,0-10.347,10.348A10.347,10.347,0,0,0,252.925,559.846Z" transform="translate(-232.23 -549.499)" fill="#8fd2ff"/>
      <path id="패스_24094" data-name="패스 24094" d="M272.393,577.562a4.844,4.844,0,0,0-6.85,6.85l3.09,3.089a.474.474,0,0,0,.671,0l3.09-3.089A4.85,4.85,0,0,0,272.393,577.562Zm-1.368,3.425a2.057,2.057,0,1,1-.6-1.455A2.045,2.045,0,0,1,271.025,580.988Z" transform="translate(-258.619 -571.545)" fill="#fff"/>
    </g>
    <g id="그룹_3722" data-name="그룹 3722" transform="translate(252.383 2202.666)">
      <path id="패스_24093-2" data-name="패스 24093" d="M252.925,559.846a10.347,10.347,0,1,0-10.347,10.348A10.347,10.347,0,0,0,252.925,559.846Z" transform="translate(-232.23 -549.499)" fill="#ffce48"/>
      <path id="패스_24094-2" data-name="패스 24094" d="M272.393,577.562a4.844,4.844,0,0,0-6.85,6.85l3.09,3.089a.474.474,0,0,0,.671,0l3.09-3.089A4.85,4.85,0,0,0,272.393,577.562Zm-1.368,3.425a2.057,2.057,0,1,1-.6-1.455A2.045,2.045,0,0,1,271.025,580.988Z" transform="translate(-258.619 -571.545)" fill="#fff"/>
    </g>
    <g id="그룹_3723" data-name="그룹 3723" transform="translate(232.695 2217.458)">
      <path id="패스_24093-3" data-name="패스 24093" d="M252.925,559.846a10.347,10.347,0,1,0-10.347,10.348A10.347,10.347,0,0,0,252.925,559.846Z" transform="translate(-232.23 -549.499)" fill="#91dcd2"/>
      <path id="패스_24094-3" data-name="패스 24094" d="M272.393,577.562a4.844,4.844,0,0,0-6.85,6.85l3.09,3.089a.474.474,0,0,0,.671,0l3.09-3.089A4.85,4.85,0,0,0,272.393,577.562Zm-1.368,3.425a2.057,2.057,0,1,1-.6-1.455A2.045,2.045,0,0,1,271.025,580.988Z" transform="translate(-258.619 -571.545)" fill="#fff"/>
    </g>
    <g id="그룹_3724" data-name="그룹 3724" transform="translate(258.375 2226.785)">
      <path id="패스_24093-4" data-name="패스 24093" d="M252.925,559.846a10.347,10.347,0,1,0-10.347,10.348A10.347,10.347,0,0,0,252.925,559.846Z" transform="translate(-232.23 -549.499)" fill="#9fcf8b"/>
      <path id="패스_24094-4" data-name="패스 24094" d="M272.393,577.562a4.844,4.844,0,0,0-6.85,6.85l3.09,3.089a.474.474,0,0,0,.671,0l3.09-3.089A4.85,4.85,0,0,0,272.393,577.562Zm-1.368,3.425a2.057,2.057,0,1,1-.6-1.455A2.045,2.045,0,0,1,271.025,580.988Z" transform="translate(-258.619 -571.545)" fill="#fff"/>
    </g>
    <g id="그룹_3726" data-name="그룹 3726" transform="translate(287.479 2185.981)">
      <path id="패스_24093-5" data-name="패스 24093" d="M252.925,559.846a10.347,10.347,0,1,0-10.347,10.348A10.347,10.347,0,0,0,252.925,559.846Z" transform="translate(-232.23 -549.499)" fill="#9fcf8b"/>
      <path id="패스_24094-5" data-name="패스 24094" d="M272.393,577.562a4.844,4.844,0,0,0-6.85,6.85l3.09,3.089a.474.474,0,0,0,.671,0l3.09-3.089A4.85,4.85,0,0,0,272.393,577.562Zm-1.368,3.425a2.057,2.057,0,1,1-.6-1.455A2.045,2.045,0,0,1,271.025,580.988Z" transform="translate(-258.619 -571.545)" fill="#fff"/>
    </g>
    <g id="그룹_3727" data-name="그룹 3727" transform="translate(342.202 2209.094)">
      <path id="패스_24093-6" data-name="패스 24093" d="M252.925,559.846a10.347,10.347,0,1,0-10.347,10.348A10.347,10.347,0,0,0,252.925,559.846Z" transform="translate(-232.23 -549.499)" fill="#8fd2ff"/>
      <path id="패스_24094-6" data-name="패스 24094" d="M272.393,577.562a4.844,4.844,0,0,0-6.85,6.85l3.09,3.089a.474.474,0,0,0,.671,0l3.09-3.089A4.85,4.85,0,0,0,272.393,577.562Zm-1.368,3.425a2.057,2.057,0,1,1-.6-1.455A2.045,2.045,0,0,1,271.025,580.988Z" transform="translate(-258.619 -571.545)" fill="#fff"/>
    </g>
    <g id="그룹_3728" data-name="그룹 3728" transform="translate(277.132 2279.317)">
      <path id="패스_24093-7" data-name="패스 24093" d="M252.925,559.846a10.347,10.347,0,1,0-10.347,10.348A10.347,10.347,0,0,0,252.925,559.846Z" transform="translate(-232.23 -549.499)" fill="#91dcd2"/>
      <path id="패스_24094-7" data-name="패스 24094" d="M272.393,577.562a4.844,4.844,0,0,0-6.85,6.85l3.09,3.089a.474.474,0,0,0,.671,0l3.09-3.089A4.85,4.85,0,0,0,272.393,577.562Zm-1.368,3.425a2.057,2.057,0,1,1-.6-1.455A2.045,2.045,0,0,1,271.025,580.988Z" transform="translate(-258.619 -571.545)" fill="#fff"/>
    </g>
    <g id="그룹_3729" data-name="그룹 3729" transform="translate(236.614 2376.933)">
      <path id="패스_24093-8" data-name="패스 24093" d="M252.925,559.846a10.347,10.347,0,1,0-10.347,10.348A10.347,10.347,0,0,0,252.925,559.846Z" transform="translate(-232.23 -549.499)" fill="#9fcf8b"/>
      <path id="패스_24094-8" data-name="패스 24094" d="M272.393,577.562a4.844,4.844,0,0,0-6.85,6.85l3.09,3.089a.474.474,0,0,0,.671,0l3.09-3.089A4.85,4.85,0,0,0,272.393,577.562Zm-1.368,3.425a2.057,2.057,0,1,1-.6-1.455A2.045,2.045,0,0,1,271.025,580.988Z" transform="translate(-258.619 -571.545)" fill="#fff"/>
    </g>
    <g id="그룹_3730" data-name="그룹 3730" transform="translate(291.646 2366.83)">
      <path id="패스_24093-9" data-name="패스 24093" d="M252.925,559.846a10.347,10.347,0,1,0-10.347,10.348A10.347,10.347,0,0,0,252.925,559.846Z" transform="translate(-232.23 -549.499)" fill="#8fd2ff"/>
      <path id="패스_24094-9" data-name="패스 24094" d="M272.393,577.562a4.844,4.844,0,0,0-6.85,6.85l3.09,3.089a.474.474,0,0,0,.671,0l3.09-3.089A4.85,4.85,0,0,0,272.393,577.562Zm-1.368,3.425a2.057,2.057,0,1,1-.6-1.455A2.045,2.045,0,0,1,271.025,580.988Z" transform="translate(-258.619 -571.545)" fill="#fff"/>
    </g>
    <g id="그룹_3731" data-name="그룹 3731" transform="translate(319.609 2362.367)">
      <path id="패스_24093-10" data-name="패스 24093" d="M252.925,559.846a10.347,10.347,0,1,0-10.347,10.348A10.347,10.347,0,0,0,252.925,559.846Z" transform="translate(-232.23 -549.499)" fill="#ffce48"/>
      <path id="패스_24094-10" data-name="패스 24094" d="M272.393,577.562a4.844,4.844,0,0,0-6.85,6.85l3.09,3.089a.474.474,0,0,0,.671,0l3.09-3.089A4.85,4.85,0,0,0,272.393,577.562Zm-1.368,3.425a2.057,2.057,0,1,1-.6-1.455A2.045,2.045,0,0,1,271.025,580.988Z" transform="translate(-258.619 -571.545)" fill="#fff"/>
    </g>
    <g id="그룹_3732" data-name="그룹 3732" transform="translate(352.338 2367.832)">
      <path id="패스_24093-11" data-name="패스 24093" d="M252.925,559.846a10.347,10.347,0,1,0-10.347,10.348A10.347,10.347,0,0,0,252.925,559.846Z" transform="translate(-232.23 -549.499)" fill="#91dcd2"/>
      <path id="패스_24094-11" data-name="패스 24094" d="M272.393,577.562a4.844,4.844,0,0,0-6.85,6.85l3.09,3.089a.474.474,0,0,0,.671,0l3.09-3.089A4.85,4.85,0,0,0,272.393,577.562Zm-1.368,3.425a2.057,2.057,0,1,1-.6-1.455A2.045,2.045,0,0,1,271.025,580.988Z" transform="translate(-258.619 -571.545)" fill="#fff"/>
    </g>
    <g id="그룹_3733" data-name="그룹 3733" transform="translate(362.685 2325.529)">
      <path id="패스_24093-12" data-name="패스 24093" d="M252.925,559.846a10.347,10.347,0,1,0-10.347,10.348A10.347,10.347,0,0,0,252.925,559.846Z" transform="translate(-232.23 -549.499)" fill="#8fd2ff"/>
      <path id="패스_24094-12" data-name="패스 24094" d="M272.393,577.562a4.844,4.844,0,0,0-6.85,6.85l3.09,3.089a.474.474,0,0,0,.671,0l3.09-3.089A4.85,4.85,0,0,0,272.393,577.562Zm-1.368,3.425a2.057,2.057,0,1,1-.6-1.455A2.045,2.045,0,0,1,271.025,580.988Z" transform="translate(-258.619 -571.545)" fill="#fff"/>
    </g>
    <g id="그룹_3734" data-name="그룹 3734" transform="translate(321.507 2301.603)">
      <path id="패스_24093-13" data-name="패스 24093" d="M252.925,559.846a10.347,10.347,0,1,0-10.347,10.348A10.347,10.347,0,0,0,252.925,559.846Z" transform="translate(-232.23 -549.499)" fill="#9fcf8b"/>
      <path id="패스_24094-13" data-name="패스 24094" d="M272.393,577.562a4.844,4.844,0,0,0-6.85,6.85l3.09,3.089a.474.474,0,0,0,.671,0l3.09-3.089A4.85,4.85,0,0,0,272.393,577.562Zm-1.368,3.425a2.057,2.057,0,1,1-.6-1.455A2.045,2.045,0,0,1,271.025,580.988Z" transform="translate(-258.619 -571.545)" fill="#fff"/>
    </g>
    <g id="그룹_3735" data-name="그룹 3735" transform="translate(340.304 2273.449)">
      <path id="패스_24093-14" data-name="패스 24093" d="M252.925,559.846a10.347,10.347,0,1,0-10.347,10.348A10.347,10.347,0,0,0,252.925,559.846Z" transform="translate(-232.23 -549.499)" fill="#ffce48"/>
      <path id="패스_24094-14" data-name="패스 24094" d="M272.393,577.562a4.844,4.844,0,0,0-6.85,6.85l3.09,3.089a.474.474,0,0,0,.671,0l3.09-3.089A4.85,4.85,0,0,0,272.393,577.562Zm-1.368,3.425a2.057,2.057,0,1,1-.6-1.455A2.045,2.045,0,0,1,271.025,580.988Z" transform="translate(-258.619 -571.545)" fill="#fff"/>
    </g>
    <g id="그룹_3725" data-name="그룹 3725" transform="translate(237.68 2241.577)">
      <path id="패스_24093-15" data-name="패스 24093" d="M252.925,559.846a10.347,10.347,0,1,0-10.347,10.348A10.347,10.347,0,0,0,252.925,559.846Z" transform="translate(-232.23 -549.499)" fill="#ffce48"/>
      <path id="패스_24094-15" data-name="패스 24094" d="M272.393,577.562a4.844,4.844,0,0,0-6.85,6.85l3.09,3.089a.474.474,0,0,0,.671,0l3.09-3.089A4.85,4.85,0,0,0,272.393,577.562Zm-1.368,3.425a2.057,2.057,0,1,1-.6-1.455A2.045,2.045,0,0,1,271.025,580.988Z" transform="translate(-258.619 -571.545)" fill="#fff"/>
    </g>
  </g>
</svg>
